<svg width="224" height="100" viewBox="0 0 224 100" fill="none" xmlns="http://www.w3.org/2000/svg">
<rect width="224" height="100" rx="20" fill="#0440A3"/>
<rect width="224" height="90" rx="20" fill="#0158E6"/>
<path d="M108.256 36.296C109.536 36.296 110.656 36.56 111.616 37.088C112.576 37.616 113.312 38.376 113.824 39.368C114.352 40.344 114.616 41.504 114.616 42.848H112.264C112.264 41.456 111.92 40.376 111.232 39.608C110.544 38.824 109.552 38.432 108.256 38.432C106.816 38.432 105.72 38.88 104.968 39.776C104.216 40.656 103.84 41.96 103.84 43.688V45.848C103.84 47.56 104.208 48.864 104.944 49.76C105.68 50.656 106.768 51.104 108.208 51.104C109.552 51.104 110.576 50.72 111.28 49.952C112 49.184 112.36 48.112 112.36 46.736H114.616C114.616 48.064 114.352 49.216 113.824 50.192C113.312 51.168 112.576 51.92 111.616 52.448C110.656 52.976 109.536 53.24 108.256 53.24C106.128 53.24 104.464 52.592 103.264 51.296C102.08 49.984 101.488 48.168 101.488 45.848V43.688C101.488 41.384 102.08 39.576 103.264 38.264C104.464 36.952 106.128 36.296 108.256 36.296ZM120.21 35.72V37.808H117.858V35.72H120.21ZM120.162 40.736V53H117.906V40.736H120.162ZM128.82 40.496C129.732 40.496 130.54 40.64 131.244 40.928C131.964 41.216 132.516 41.616 132.9 42.128C133.3 42.64 133.5 43.208 133.5 43.832L133.476 44.264H131.244V44.048C131.244 42.88 130.34 42.296 128.532 42.296C126.74 42.296 125.844 42.832 125.844 43.904C125.844 44.4 126.1 44.768 126.612 45.008C127.124 45.232 127.908 45.448 128.964 45.656C129.972 45.864 130.796 46.08 131.436 46.304C132.092 46.528 132.644 46.88 133.092 47.36C133.556 47.84 133.788 48.488 133.788 49.304C133.788 50.616 133.34 51.6 132.444 52.256C131.548 52.912 130.26 53.24 128.58 53.24H128.22C127.212 53.24 126.332 53.088 125.58 52.784C124.828 52.464 124.244 52.04 123.828 51.512C123.428 50.968 123.236 50.36 123.252 49.688V49.16H125.484V49.4C125.484 50.76 126.628 51.44 128.916 51.44C129.588 51.44 130.188 51.288 130.716 50.984C131.26 50.68 131.532 50.264 131.532 49.736C131.532 49.288 131.38 48.936 131.076 48.68C130.788 48.424 130.428 48.232 129.996 48.104C129.564 47.976 128.964 47.848 128.196 47.72C127.204 47.528 126.404 47.336 125.796 47.144C125.188 46.936 124.668 46.592 124.236 46.112C123.804 45.632 123.588 44.976 123.588 44.144C123.588 43.008 124.036 42.12 124.932 41.48C125.828 40.824 127.052 40.496 128.604 40.496H128.82ZM141.881 40.496C142.889 40.496 143.777 40.712 144.545 41.144C145.329 41.56 145.937 42.16 146.369 42.944C146.801 43.728 147.017 44.64 147.017 45.68V47.384H138.449C138.481 48.68 138.785 49.68 139.361 50.384C139.937 51.088 140.793 51.44 141.929 51.44C142.937 51.44 143.681 51.144 144.161 50.552C144.641 49.96 144.881 49.256 144.881 48.44H147.017C147.017 49.4 146.793 50.24 146.345 50.96C145.913 51.68 145.305 52.24 144.521 52.64C143.753 53.04 142.873 53.24 141.881 53.24H141.785C140.057 53.24 138.689 52.688 137.681 51.584C136.689 50.464 136.193 48.976 136.193 47.12V46.64C136.193 45.424 136.417 44.352 136.865 43.424C137.313 42.496 137.953 41.776 138.785 41.264C139.617 40.752 140.593 40.496 141.713 40.496H141.881ZM141.761 42.296C140.849 42.296 140.105 42.576 139.529 43.136C138.969 43.696 138.625 44.528 138.497 45.632H144.785V45.344C144.785 44.432 144.505 43.696 143.945 43.136C143.401 42.576 142.673 42.296 141.761 42.296ZM155.121 40.496C156.737 40.496 157.937 40.816 158.721 41.456C159.521 42.096 159.921 43.024 159.921 44.24V50.6C159.921 50.888 159.985 51.104 160.113 51.248C160.241 51.376 160.401 51.44 160.593 51.44C160.961 51.44 161.329 51.328 161.697 51.104V52.76C161.153 53.08 160.537 53.24 159.849 53.24C159.161 53.24 158.649 53.048 158.313 52.664C157.977 52.264 157.793 51.72 157.761 51.032C156.769 52.504 155.337 53.24 153.465 53.24C152.121 53.24 151.113 52.952 150.441 52.376C149.785 51.784 149.457 50.856 149.457 49.592C149.457 48.6 149.713 47.824 150.225 47.264C150.737 46.688 151.585 46.272 152.769 46.016C153.953 45.76 155.585 45.632 157.665 45.632V44.504C157.665 43.688 157.425 43.12 156.945 42.8C156.465 42.464 155.769 42.296 154.857 42.296C153.993 42.296 153.321 42.464 152.841 42.8C152.361 43.136 152.121 43.608 152.121 44.216V44.504H149.913C149.881 44.28 149.865 44.016 149.865 43.712C149.865 43.152 150.089 42.624 150.537 42.128C150.985 41.632 151.593 41.24 152.361 40.952C153.129 40.648 153.977 40.496 154.905 40.496H155.121ZM157.665 47.384C155.985 47.384 154.713 47.472 153.849 47.648C153.001 47.808 152.433 48.056 152.145 48.392C151.857 48.728 151.713 49.192 151.713 49.784C151.713 50.888 152.553 51.44 154.233 51.44C154.825 51.44 155.385 51.296 155.913 51.008C156.441 50.704 156.865 50.28 157.185 49.736C157.505 49.192 157.665 48.568 157.665 47.864V47.384ZM174.584 50.6C174.584 50.888 174.648 51.104 174.776 51.248C174.904 51.376 175.064 51.44 175.256 51.44C175.608 51.44 175.968 51.328 176.336 51.104V52.76C175.84 53.08 175.336 53.24 174.824 53.24C173.96 53.24 173.352 53.064 173 52.712C172.664 52.36 172.48 51.864 172.448 51.224C172.016 51.864 171.456 52.36 170.768 52.712C170.096 53.064 169.32 53.24 168.44 53.24C167.208 53.24 166.192 52.88 165.392 52.16C164.608 51.424 164.216 50.368 164.216 48.992V40.736H166.472V48.584C166.472 50.488 167.336 51.44 169.064 51.44C169.624 51.44 170.152 51.288 170.648 50.984C171.16 50.68 171.568 50.272 171.872 49.76C172.176 49.232 172.328 48.656 172.328 48.032V40.736H174.584V50.6ZM188.988 40.736L184.692 46.64L189.204 53H186.516L183.324 48.512L180.084 53H177.612L182.124 46.784L177.852 40.736H180.54L183.492 44.912L186.516 40.736H188.988ZM200.116 36.536C200.084 36.808 199.884 40.904 199.516 48.824H197.356V36.536H200.116ZM199.948 50.336V53H197.524V50.336H199.948Z" fill="white"/>
<circle cx="55" cy="45" r="30" fill="#0440A3"/>
<g clip-path="url(#clip0_747_85)">
<path d="M46.2312 45.628C45.8438 45.2407 45.3288 45.0273 44.781 45.0273C44.2332 45.0273 43.7182 45.2407 43.3309 45.628C42.9436 46.0153 42.7302 46.5303 42.7302 47.0781C42.7302 47.6259 42.9436 48.1409 43.3309 48.5282C43.7182 48.9155 44.2332 49.1288 44.781 49.1288C45.3288 49.1288 45.8438 48.9155 46.2311 48.5282C46.6184 48.1409 46.8317 47.6259 46.8317 47.078C46.8317 46.5302 46.6184 46.0152 46.2312 45.628ZM45.4025 47.6996C45.2365 47.8656 45.0157 47.957 44.781 47.957C44.5463 47.957 44.3256 47.8656 44.1595 47.6995C43.9935 47.5336 43.9021 47.3129 43.9021 47.0781C43.9021 46.8434 43.9935 46.6227 44.1596 46.4567C44.3256 46.2907 44.5463 46.1992 44.781 46.1992C45.0157 46.1992 45.2365 46.2906 45.4025 46.4567C45.5685 46.6226 45.6599 46.8433 45.6599 47.0781C45.6599 47.3129 45.5685 47.5335 45.4025 47.6996Z" fill="white"/>
<path d="M69.8252 37.8195C69.673 37.6695 69.4511 37.6141 69.2462 37.6753L59.3794 40.6202L62.3244 30.7535C62.3856 30.5486 62.3304 30.3267 62.1802 30.1745C62.0301 30.0224 61.8092 29.964 61.6033 30.0221L59.0452 30.7467C58.8789 30.7938 58.7419 30.9119 58.6708 31.0694L53.5785 42.3516L48.3828 43.9024C47.1731 42.4646 45.2203 41.8674 43.392 42.4132C40.8824 43.1623 39.4501 45.8133 40.1991 48.3229C40.8134 50.3811 42.7071 51.7147 44.7528 51.7147C45.2015 51.7147 45.6574 51.6505 46.1089 51.5158C47.8633 50.9921 49.14 49.5204 49.4359 47.7513L51.9971 48.0026L52.2484 50.5638C50.4794 50.8597 49.0076 52.1364 48.4838 53.8908C47.7348 56.4004 49.1672 59.0515 51.6767 59.8005C52.1202 59.9329 52.5779 60 53.0368 60C54.0383 60 55.0365 59.6721 55.8478 59.0768C56.6869 58.4611 57.2881 57.6073 57.5865 56.6077C58.1322 54.7793 57.535 52.8265 56.0972 51.6169L57.648 46.4212L68.9303 41.3289C69.0878 41.2578 69.2059 41.1208 69.253 40.9545L69.9776 38.3965C70.0359 38.1907 69.9775 37.9697 69.8252 37.8195ZM51.8884 46.0959C51.8463 46.1893 51.8293 46.2921 51.8393 46.3942L51.8805 46.8136L48.9699 46.5281C48.8089 46.5124 48.6485 46.5638 48.5268 46.6703C48.405 46.7768 48.3328 46.9289 48.3271 47.0906C48.2731 48.6261 47.247 49.9532 45.7737 50.3928C43.8831 50.957 41.8862 49.878 41.322 47.9877C40.7579 46.0973 41.8368 44.1004 43.7272 43.5361C45.209 43.0938 46.7991 43.6478 47.6839 44.9146C47.8286 45.1217 48.0899 45.2127 48.3318 45.1405L52.9406 43.7649L51.8884 46.0959ZM54.8591 51.6678C54.7869 51.9099 54.8779 52.1711 55.085 52.3157C56.3518 53.2006 56.9058 54.7907 56.4636 56.2725C56.0145 57.7772 54.6053 58.8281 53.0368 58.8281C52.6914 58.8281 52.3466 58.7774 52.0119 58.6776C50.1215 58.1134 49.0426 56.1164 49.6068 54.2259C50.0465 52.7526 51.3736 51.7264 52.9091 51.6725C53.0708 51.6668 53.2229 51.5945 53.3294 51.4728C53.3864 51.4078 53.427 51.3315 53.4506 51.2502C53.4592 51.2333 53.4673 51.216 53.4743 51.1979L54.874 47.5959C54.9912 47.2943 54.8418 46.9548 54.5401 46.8375C54.2384 46.7202 53.8989 46.8698 53.7817 47.1715L53.2319 48.5862L53.0209 46.4354L59.6268 31.7999L60.8965 31.4402L54.8591 51.6678ZM68.1998 40.3729L58.0915 44.9353L58.9787 41.9628L68.5594 39.1033L68.1998 40.3729Z" fill="white"/>
<path d="M54.4849 53.8008C54.0976 53.4135 53.5827 53.2002 53.0349 53.2002C52.4871 53.2002 51.9721 53.4135 51.5848 53.8008C51.1974 54.1881 50.9841 54.7031 50.9841 55.2509C50.9841 55.7987 51.1974 56.3137 51.5848 56.701C51.9721 57.0884 52.4871 57.3017 53.0349 57.3017C53.5827 57.3017 54.0976 57.0884 54.485 56.701C55.2845 55.9014 55.2845 54.6004 54.4849 53.8008ZM53.6564 55.8724C53.4904 56.0384 53.2696 56.1298 53.0349 56.1298C52.8002 56.1298 52.5795 56.0384 52.4134 55.8724C52.2475 55.7064 52.156 55.4857 52.156 55.251C52.156 55.0163 52.2475 54.7955 52.4134 54.6295C52.5794 54.4635 52.8001 54.3721 53.0349 54.3721C53.2697 54.3721 53.4904 54.4635 53.6564 54.6295C53.999 54.9721 53.999 55.5297 53.6564 55.8724Z" fill="white"/>
<path d="M55.1771 45.1963C54.8753 45.0793 54.5359 45.229 54.419 45.5308L54.4121 45.5485C54.2951 45.8502 54.4449 46.1896 54.7466 46.3066C54.8162 46.3335 54.8878 46.3464 54.9583 46.3464C55.1931 46.3464 55.4148 46.2042 55.5047 45.9721L55.5116 45.9544C55.6286 45.6527 55.4788 45.3133 55.1771 45.1963Z" fill="white"/>
</g>
<defs>
<clipPath id="clip0_747_85">
<rect width="30" height="30" fill="white" transform="translate(40 30)"/>
</clipPath>
</defs>
</svg>
