<svg width="224" height="100" viewBox="0 0 224 100" fill="none" xmlns="http://www.w3.org/2000/svg">
<rect width="224" height="100" rx="20" fill="#0440A3"/>
<rect width="224" height="86" rx="20" fill="#0158E6"/>
<path d="M108.256 34.296C109.536 34.296 110.656 34.56 111.616 35.088C112.576 35.616 113.312 36.376 113.824 37.368C114.352 38.344 114.616 39.504 114.616 40.848H112.264C112.264 39.456 111.92 38.376 111.232 37.608C110.544 36.824 109.552 36.432 108.256 36.432C106.816 36.432 105.72 36.88 104.968 37.776C104.216 38.656 103.84 39.96 103.84 41.688V43.848C103.84 45.56 104.208 46.864 104.944 47.76C105.68 48.656 106.768 49.104 108.208 49.104C109.552 49.104 110.576 48.72 111.28 47.952C112 47.184 112.36 46.112 112.36 44.736H114.616C114.616 46.064 114.352 47.216 113.824 48.192C113.312 49.168 112.576 49.92 111.616 50.448C110.656 50.976 109.536 51.24 108.256 51.24C106.128 51.24 104.464 50.592 103.264 49.296C102.08 47.984 101.488 46.168 101.488 43.848V41.688C101.488 39.384 102.08 37.576 103.264 36.264C104.464 34.952 106.128 34.296 108.256 34.296ZM120.21 33.72V35.808H117.858V33.72H120.21ZM120.162 38.736V51H117.906V38.736H120.162ZM128.82 38.496C129.732 38.496 130.54 38.64 131.244 38.928C131.964 39.216 132.516 39.616 132.9 40.128C133.3 40.64 133.5 41.208 133.5 41.832L133.476 42.264H131.244V42.048C131.244 40.88 130.34 40.296 128.532 40.296C126.74 40.296 125.844 40.832 125.844 41.904C125.844 42.4 126.1 42.768 126.612 43.008C127.124 43.232 127.908 43.448 128.964 43.656C129.972 43.864 130.796 44.08 131.436 44.304C132.092 44.528 132.644 44.88 133.092 45.36C133.556 45.84 133.788 46.488 133.788 47.304C133.788 48.616 133.34 49.6 132.444 50.256C131.548 50.912 130.26 51.24 128.58 51.24H128.22C127.212 51.24 126.332 51.088 125.58 50.784C124.828 50.464 124.244 50.04 123.828 49.512C123.428 48.968 123.236 48.36 123.252 47.688V47.16H125.484V47.4C125.484 48.76 126.628 49.44 128.916 49.44C129.588 49.44 130.188 49.288 130.716 48.984C131.26 48.68 131.532 48.264 131.532 47.736C131.532 47.288 131.38 46.936 131.076 46.68C130.788 46.424 130.428 46.232 129.996 46.104C129.564 45.976 128.964 45.848 128.196 45.72C127.204 45.528 126.404 45.336 125.796 45.144C125.188 44.936 124.668 44.592 124.236 44.112C123.804 43.632 123.588 42.976 123.588 42.144C123.588 41.008 124.036 40.12 124.932 39.48C125.828 38.824 127.052 38.496 128.604 38.496H128.82ZM141.881 38.496C142.889 38.496 143.777 38.712 144.545 39.144C145.329 39.56 145.937 40.16 146.369 40.944C146.801 41.728 147.017 42.64 147.017 43.68V45.384H138.449C138.481 46.68 138.785 47.68 139.361 48.384C139.937 49.088 140.793 49.44 141.929 49.44C142.937 49.44 143.681 49.144 144.161 48.552C144.641 47.96 144.881 47.256 144.881 46.44H147.017C147.017 47.4 146.793 48.24 146.345 48.96C145.913 49.68 145.305 50.24 144.521 50.64C143.753 51.04 142.873 51.24 141.881 51.24H141.785C140.057 51.24 138.689 50.688 137.681 49.584C136.689 48.464 136.193 46.976 136.193 45.12V44.64C136.193 43.424 136.417 42.352 136.865 41.424C137.313 40.496 137.953 39.776 138.785 39.264C139.617 38.752 140.593 38.496 141.713 38.496H141.881ZM141.761 40.296C140.849 40.296 140.105 40.576 139.529 41.136C138.969 41.696 138.625 42.528 138.497 43.632H144.785V43.344C144.785 42.432 144.505 41.696 143.945 41.136C143.401 40.576 142.673 40.296 141.761 40.296ZM155.121 38.496C156.737 38.496 157.937 38.816 158.721 39.456C159.521 40.096 159.921 41.024 159.921 42.24V48.6C159.921 48.888 159.985 49.104 160.113 49.248C160.241 49.376 160.401 49.44 160.593 49.44C160.961 49.44 161.329 49.328 161.697 49.104V50.76C161.153 51.08 160.537 51.24 159.849 51.24C159.161 51.24 158.649 51.048 158.313 50.664C157.977 50.264 157.793 49.72 157.761 49.032C156.769 50.504 155.337 51.24 153.465 51.24C152.121 51.24 151.113 50.952 150.441 50.376C149.785 49.784 149.457 48.856 149.457 47.592C149.457 46.6 149.713 45.824 150.225 45.264C150.737 44.688 151.585 44.272 152.769 44.016C153.953 43.76 155.585 43.632 157.665 43.632V42.504C157.665 41.688 157.425 41.12 156.945 40.8C156.465 40.464 155.769 40.296 154.857 40.296C153.993 40.296 153.321 40.464 152.841 40.8C152.361 41.136 152.121 41.608 152.121 42.216V42.504H149.913C149.881 42.28 149.865 42.016 149.865 41.712C149.865 41.152 150.089 40.624 150.537 40.128C150.985 39.632 151.593 39.24 152.361 38.952C153.129 38.648 153.977 38.496 154.905 38.496H155.121ZM157.665 45.384C155.985 45.384 154.713 45.472 153.849 45.648C153.001 45.808 152.433 46.056 152.145 46.392C151.857 46.728 151.713 47.192 151.713 47.784C151.713 48.888 152.553 49.44 154.233 49.44C154.825 49.44 155.385 49.296 155.913 49.008C156.441 48.704 156.865 48.28 157.185 47.736C157.505 47.192 157.665 46.568 157.665 45.864V45.384ZM174.584 48.6C174.584 48.888 174.648 49.104 174.776 49.248C174.904 49.376 175.064 49.44 175.256 49.44C175.608 49.44 175.968 49.328 176.336 49.104V50.76C175.84 51.08 175.336 51.24 174.824 51.24C173.96 51.24 173.352 51.064 173 50.712C172.664 50.36 172.48 49.864 172.448 49.224C172.016 49.864 171.456 50.36 170.768 50.712C170.096 51.064 169.32 51.24 168.44 51.24C167.208 51.24 166.192 50.88 165.392 50.16C164.608 49.424 164.216 48.368 164.216 46.992V38.736H166.472V46.584C166.472 48.488 167.336 49.44 169.064 49.44C169.624 49.44 170.152 49.288 170.648 48.984C171.16 48.68 171.568 48.272 171.872 47.76C172.176 47.232 172.328 46.656 172.328 46.032V38.736H174.584V48.6ZM188.988 38.736L184.692 44.64L189.204 51H186.516L183.324 46.512L180.084 51H177.612L182.124 44.784L177.852 38.736H180.54L183.492 42.912L186.516 38.736H188.988ZM200.116 34.536C200.084 34.808 199.884 38.904 199.516 46.824H197.356V34.536H200.116ZM199.948 48.336V51H197.524V48.336H199.948Z" fill="white"/>
<circle cx="55" cy="43" r="30" fill="#0440A3"/>
<g clip-path="url(#clip0_747_710)">
<path d="M46.2312 43.628C45.8438 43.2407 45.3288 43.0273 44.781 43.0273C44.2332 43.0273 43.7182 43.2407 43.3309 43.628C42.9436 44.0153 42.7302 44.5303 42.7302 45.0781C42.7302 45.6259 42.9436 46.1409 43.3309 46.5282C43.7182 46.9155 44.2332 47.1288 44.781 47.1288C45.3288 47.1288 45.8438 46.9155 46.2311 46.5282C46.6184 46.1409 46.8317 45.6259 46.8317 45.078C46.8317 44.5302 46.6184 44.0152 46.2312 43.628ZM45.4025 45.6996C45.2365 45.8656 45.0157 45.957 44.781 45.957C44.5463 45.957 44.3256 45.8656 44.1595 45.6995C43.9935 45.5336 43.9021 45.3129 43.9021 45.0781C43.9021 44.8434 43.9935 44.6227 44.1596 44.4567C44.3256 44.2907 44.5463 44.1992 44.781 44.1992C45.0157 44.1992 45.2365 44.2906 45.4025 44.4567C45.5685 44.6226 45.6599 44.8433 45.6599 45.0781C45.6599 45.3129 45.5685 45.5335 45.4025 45.6996Z" fill="white"/>
<path d="M69.8252 35.8195C69.673 35.6695 69.4511 35.6141 69.2462 35.6753L59.3794 38.6202L62.3244 28.7535C62.3856 28.5486 62.3304 28.3267 62.1802 28.1745C62.0301 28.0224 61.8092 27.964 61.6033 28.0221L59.0452 28.7467C58.8789 28.7938 58.7419 28.9119 58.6708 29.0694L53.5785 40.3516L48.3828 41.9024C47.1731 40.4646 45.2203 39.8674 43.392 40.4132C40.8824 41.1623 39.4501 43.8133 40.1991 46.3229C40.8134 48.3811 42.7071 49.7147 44.7528 49.7147C45.2015 49.7147 45.6574 49.6505 46.1089 49.5158C47.8633 48.9921 49.14 47.5204 49.4359 45.7513L51.9971 46.0026L52.2484 48.5638C50.4794 48.8597 49.0076 50.1364 48.4838 51.8908C47.7348 54.4004 49.1672 57.0515 51.6767 57.8005C52.1202 57.9329 52.5779 58 53.0368 58C54.0383 58 55.0365 57.6721 55.8478 57.0768C56.6869 56.4611 57.2881 55.6073 57.5865 54.6077C58.1322 52.7793 57.535 50.8265 56.0972 49.6169L57.648 44.4212L68.9303 39.3289C69.0878 39.2578 69.2059 39.1208 69.253 38.9545L69.9776 36.3965C70.0359 36.1907 69.9775 35.9697 69.8252 35.8195ZM51.8884 44.0959C51.8463 44.1893 51.8293 44.2921 51.8393 44.3942L51.8805 44.8136L48.9699 44.5281C48.8089 44.5124 48.6485 44.5638 48.5268 44.6703C48.405 44.7768 48.3328 44.9289 48.3271 45.0906C48.2731 46.6261 47.247 47.9532 45.7737 48.3928C43.8831 48.957 41.8862 47.878 41.322 45.9877C40.7579 44.0973 41.8368 42.1004 43.7272 41.5361C45.209 41.0938 46.7991 41.6478 47.6839 42.9146C47.8286 43.1217 48.0899 43.2127 48.3318 43.1405L52.9406 41.7649L51.8884 44.0959ZM54.8591 49.6678C54.7869 49.9099 54.8779 50.1711 55.085 50.3157C56.3518 51.2006 56.9058 52.7907 56.4636 54.2725C56.0145 55.7772 54.6053 56.8281 53.0368 56.8281C52.6914 56.8281 52.3466 56.7774 52.0119 56.6776C50.1215 56.1134 49.0426 54.1164 49.6068 52.2259C50.0465 50.7526 51.3736 49.7264 52.9091 49.6725C53.0708 49.6668 53.2229 49.5945 53.3294 49.4728C53.3864 49.4078 53.427 49.3315 53.4506 49.2502C53.4592 49.2333 53.4673 49.216 53.4743 49.1979L54.874 45.5959C54.9912 45.2943 54.8418 44.9548 54.5401 44.8375C54.2384 44.7202 53.8989 44.8698 53.7817 45.1715L53.2319 46.5862L53.0209 44.4354L59.6268 29.7999L60.8965 29.4402L54.8591 49.6678ZM68.1998 38.3729L58.0915 42.9353L58.9787 39.9628L68.5594 37.1033L68.1998 38.3729Z" fill="white"/>
<path d="M54.4849 51.8008C54.0976 51.4135 53.5827 51.2002 53.0349 51.2002C52.4871 51.2002 51.9721 51.4135 51.5848 51.8008C51.1974 52.1881 50.9841 52.7031 50.9841 53.2509C50.9841 53.7987 51.1974 54.3137 51.5848 54.701C51.9721 55.0884 52.4871 55.3017 53.0349 55.3017C53.5827 55.3017 54.0976 55.0884 54.485 54.701C55.2845 53.9014 55.2845 52.6004 54.4849 51.8008ZM53.6564 53.8724C53.4904 54.0384 53.2696 54.1298 53.0349 54.1298C52.8002 54.1298 52.5795 54.0384 52.4134 53.8724C52.2475 53.7064 52.156 53.4857 52.156 53.251C52.156 53.0163 52.2475 52.7955 52.4134 52.6295C52.5794 52.4635 52.8001 52.3721 53.0349 52.3721C53.2697 52.3721 53.4904 52.4635 53.6564 52.6295C53.999 52.9721 53.999 53.5297 53.6564 53.8724Z" fill="white"/>
<path d="M55.1771 43.1963C54.8753 43.0793 54.5359 43.229 54.419 43.5308L54.4121 43.5485C54.2951 43.8502 54.4449 44.1896 54.7466 44.3066C54.8162 44.3335 54.8878 44.3464 54.9583 44.3464C55.1931 44.3464 55.4148 44.2042 55.5047 43.9721L55.5116 43.9544C55.6286 43.6527 55.4788 43.3133 55.1771 43.1963Z" fill="white"/>
</g>
<defs>
<clipPath id="clip0_747_710">
<rect width="30" height="30" fill="white" transform="translate(40 28)"/>
</clipPath>
</defs>
</svg>
