<svg width="224" height="100" viewBox="0 0 224 100" fill="none" xmlns="http://www.w3.org/2000/svg">
<rect width="224" height="100" rx="20" fill="#0440A3"/>
<rect width="224" height="96" rx="20" fill="#0158E6"/>
<path d="M108.256 41.296C109.536 41.296 110.656 41.56 111.616 42.088C112.576 42.616 113.312 43.376 113.824 44.368C114.352 45.344 114.616 46.504 114.616 47.848H112.264C112.264 46.456 111.92 45.376 111.232 44.608C110.544 43.824 109.552 43.432 108.256 43.432C106.816 43.432 105.72 43.88 104.968 44.776C104.216 45.656 103.84 46.96 103.84 48.688V50.848C103.84 52.56 104.208 53.864 104.944 54.76C105.68 55.656 106.768 56.104 108.208 56.104C109.552 56.104 110.576 55.72 111.28 54.952C112 54.184 112.36 53.112 112.36 51.736H114.616C114.616 53.064 114.352 54.216 113.824 55.192C113.312 56.168 112.576 56.92 111.616 57.448C110.656 57.976 109.536 58.24 108.256 58.24C106.128 58.24 104.464 57.592 103.264 56.296C102.08 54.984 101.488 53.168 101.488 50.848V48.688C101.488 46.384 102.08 44.576 103.264 43.264C104.464 41.952 106.128 41.296 108.256 41.296ZM120.21 40.72V42.808H117.858V40.72H120.21ZM120.162 45.736V58H117.906V45.736H120.162ZM128.82 45.496C129.732 45.496 130.54 45.64 131.244 45.928C131.964 46.216 132.516 46.616 132.9 47.128C133.3 47.64 133.5 48.208 133.5 48.832L133.476 49.264H131.244V49.048C131.244 47.88 130.34 47.296 128.532 47.296C126.74 47.296 125.844 47.832 125.844 48.904C125.844 49.4 126.1 49.768 126.612 50.008C127.124 50.232 127.908 50.448 128.964 50.656C129.972 50.864 130.796 51.08 131.436 51.304C132.092 51.528 132.644 51.88 133.092 52.36C133.556 52.84 133.788 53.488 133.788 54.304C133.788 55.616 133.34 56.6 132.444 57.256C131.548 57.912 130.26 58.24 128.58 58.24H128.22C127.212 58.24 126.332 58.088 125.58 57.784C124.828 57.464 124.244 57.04 123.828 56.512C123.428 55.968 123.236 55.36 123.252 54.688V54.16H125.484V54.4C125.484 55.76 126.628 56.44 128.916 56.44C129.588 56.44 130.188 56.288 130.716 55.984C131.26 55.68 131.532 55.264 131.532 54.736C131.532 54.288 131.38 53.936 131.076 53.68C130.788 53.424 130.428 53.232 129.996 53.104C129.564 52.976 128.964 52.848 128.196 52.72C127.204 52.528 126.404 52.336 125.796 52.144C125.188 51.936 124.668 51.592 124.236 51.112C123.804 50.632 123.588 49.976 123.588 49.144C123.588 48.008 124.036 47.12 124.932 46.48C125.828 45.824 127.052 45.496 128.604 45.496H128.82ZM141.881 45.496C142.889 45.496 143.777 45.712 144.545 46.144C145.329 46.56 145.937 47.16 146.369 47.944C146.801 48.728 147.017 49.64 147.017 50.68V52.384H138.449C138.481 53.68 138.785 54.68 139.361 55.384C139.937 56.088 140.793 56.44 141.929 56.44C142.937 56.44 143.681 56.144 144.161 55.552C144.641 54.96 144.881 54.256 144.881 53.44H147.017C147.017 54.4 146.793 55.24 146.345 55.96C145.913 56.68 145.305 57.24 144.521 57.64C143.753 58.04 142.873 58.24 141.881 58.24H141.785C140.057 58.24 138.689 57.688 137.681 56.584C136.689 55.464 136.193 53.976 136.193 52.12V51.64C136.193 50.424 136.417 49.352 136.865 48.424C137.313 47.496 137.953 46.776 138.785 46.264C139.617 45.752 140.593 45.496 141.713 45.496H141.881ZM141.761 47.296C140.849 47.296 140.105 47.576 139.529 48.136C138.969 48.696 138.625 49.528 138.497 50.632H144.785V50.344C144.785 49.432 144.505 48.696 143.945 48.136C143.401 47.576 142.673 47.296 141.761 47.296ZM155.121 45.496C156.737 45.496 157.937 45.816 158.721 46.456C159.521 47.096 159.921 48.024 159.921 49.24V55.6C159.921 55.888 159.985 56.104 160.113 56.248C160.241 56.376 160.401 56.44 160.593 56.44C160.961 56.44 161.329 56.328 161.697 56.104V57.76C161.153 58.08 160.537 58.24 159.849 58.24C159.161 58.24 158.649 58.048 158.313 57.664C157.977 57.264 157.793 56.72 157.761 56.032C156.769 57.504 155.337 58.24 153.465 58.24C152.121 58.24 151.113 57.952 150.441 57.376C149.785 56.784 149.457 55.856 149.457 54.592C149.457 53.6 149.713 52.824 150.225 52.264C150.737 51.688 151.585 51.272 152.769 51.016C153.953 50.76 155.585 50.632 157.665 50.632V49.504C157.665 48.688 157.425 48.12 156.945 47.8C156.465 47.464 155.769 47.296 154.857 47.296C153.993 47.296 153.321 47.464 152.841 47.8C152.361 48.136 152.121 48.608 152.121 49.216V49.504H149.913C149.881 49.28 149.865 49.016 149.865 48.712C149.865 48.152 150.089 47.624 150.537 47.128C150.985 46.632 151.593 46.24 152.361 45.952C153.129 45.648 153.977 45.496 154.905 45.496H155.121ZM157.665 52.384C155.985 52.384 154.713 52.472 153.849 52.648C153.001 52.808 152.433 53.056 152.145 53.392C151.857 53.728 151.713 54.192 151.713 54.784C151.713 55.888 152.553 56.44 154.233 56.44C154.825 56.44 155.385 56.296 155.913 56.008C156.441 55.704 156.865 55.28 157.185 54.736C157.505 54.192 157.665 53.568 157.665 52.864V52.384ZM174.584 55.6C174.584 55.888 174.648 56.104 174.776 56.248C174.904 56.376 175.064 56.44 175.256 56.44C175.608 56.44 175.968 56.328 176.336 56.104V57.76C175.84 58.08 175.336 58.24 174.824 58.24C173.96 58.24 173.352 58.064 173 57.712C172.664 57.36 172.48 56.864 172.448 56.224C172.016 56.864 171.456 57.36 170.768 57.712C170.096 58.064 169.32 58.24 168.44 58.24C167.208 58.24 166.192 57.88 165.392 57.16C164.608 56.424 164.216 55.368 164.216 53.992V45.736H166.472V53.584C166.472 55.488 167.336 56.44 169.064 56.44C169.624 56.44 170.152 56.288 170.648 55.984C171.16 55.68 171.568 55.272 171.872 54.76C172.176 54.232 172.328 53.656 172.328 53.032V45.736H174.584V55.6ZM188.988 45.736L184.692 51.64L189.204 58H186.516L183.324 53.512L180.084 58H177.612L182.124 51.784L177.852 45.736H180.54L183.492 49.912L186.516 45.736H188.988ZM200.116 41.536C200.084 41.808 199.884 45.904 199.516 53.824H197.356V41.536H200.116ZM199.948 55.336V58H197.524V55.336H199.948Z" fill="white"/>
<circle cx="55" cy="50" r="30" fill="#0440A3"/>
<g clip-path="url(#clip0_747_711)">
<path d="M46.2312 50.628C45.8438 50.2407 45.3288 50.0273 44.781 50.0273C44.2332 50.0273 43.7182 50.2407 43.3309 50.628C42.9436 51.0153 42.7302 51.5303 42.7302 52.0781C42.7302 52.6259 42.9436 53.1409 43.3309 53.5282C43.7182 53.9155 44.2332 54.1288 44.781 54.1288C45.3288 54.1288 45.8438 53.9155 46.2311 53.5282C46.6184 53.1409 46.8317 52.6259 46.8317 52.078C46.8317 51.5302 46.6184 51.0152 46.2312 50.628ZM45.4025 52.6996C45.2365 52.8656 45.0157 52.957 44.781 52.957C44.5463 52.957 44.3256 52.8656 44.1595 52.6995C43.9935 52.5336 43.9021 52.3129 43.9021 52.0781C43.9021 51.8434 43.9935 51.6227 44.1596 51.4567C44.3256 51.2907 44.5463 51.1992 44.781 51.1992C45.0157 51.1992 45.2365 51.2906 45.4025 51.4567C45.5685 51.6226 45.6599 51.8433 45.6599 52.0781C45.6599 52.3129 45.5685 52.5335 45.4025 52.6996Z" fill="white"/>
<path d="M69.8252 42.8195C69.673 42.6695 69.4511 42.6141 69.2462 42.6753L59.3794 45.6202L62.3244 35.7535C62.3856 35.5486 62.3304 35.3267 62.1802 35.1745C62.0301 35.0224 61.8092 34.964 61.6033 35.0221L59.0452 35.7467C58.8789 35.7938 58.7419 35.9119 58.6708 36.0694L53.5785 47.3516L48.3828 48.9024C47.1731 47.4646 45.2203 46.8674 43.392 47.4132C40.8824 48.1623 39.4501 50.8133 40.1991 53.3229C40.8134 55.3811 42.7071 56.7147 44.7528 56.7147C45.2015 56.7147 45.6574 56.6505 46.1089 56.5158C47.8633 55.9921 49.14 54.5204 49.4359 52.7513L51.9971 53.0026L52.2484 55.5638C50.4794 55.8597 49.0076 57.1364 48.4838 58.8908C47.7348 61.4004 49.1672 64.0515 51.6767 64.8005C52.1202 64.9329 52.5779 65 53.0368 65C54.0383 65 55.0365 64.6721 55.8478 64.0768C56.6869 63.4611 57.2881 62.6073 57.5865 61.6077C58.1322 59.7793 57.535 57.8265 56.0972 56.6169L57.648 51.4212L68.9303 46.3289C69.0878 46.2578 69.2059 46.1208 69.253 45.9545L69.9776 43.3965C70.0359 43.1907 69.9775 42.9697 69.8252 42.8195ZM51.8884 51.0959C51.8463 51.1893 51.8293 51.2921 51.8393 51.3942L51.8805 51.8136L48.9699 51.5281C48.8089 51.5124 48.6485 51.5638 48.5268 51.6703C48.405 51.7768 48.3328 51.9289 48.3271 52.0906C48.2731 53.6261 47.247 54.9532 45.7737 55.3928C43.8831 55.957 41.8862 54.878 41.322 52.9877C40.7579 51.0973 41.8368 49.1004 43.7272 48.5361C45.209 48.0938 46.7991 48.6478 47.6839 49.9146C47.8286 50.1217 48.0899 50.2127 48.3318 50.1405L52.9406 48.7649L51.8884 51.0959ZM54.8591 56.6678C54.7869 56.9099 54.8779 57.1711 55.085 57.3157C56.3518 58.2006 56.9058 59.7907 56.4636 61.2725C56.0145 62.7772 54.6053 63.8281 53.0368 63.8281C52.6914 63.8281 52.3466 63.7774 52.0119 63.6776C50.1215 63.1134 49.0426 61.1164 49.6068 59.2259C50.0465 57.7526 51.3736 56.7264 52.9091 56.6725C53.0708 56.6668 53.2229 56.5945 53.3294 56.4728C53.3864 56.4078 53.427 56.3315 53.4506 56.2502C53.4592 56.2333 53.4673 56.216 53.4743 56.1979L54.874 52.5959C54.9912 52.2943 54.8418 51.9548 54.5401 51.8375C54.2384 51.7202 53.8989 51.8698 53.7817 52.1715L53.2319 53.5862L53.0209 51.4354L59.6268 36.7999L60.8965 36.4402L54.8591 56.6678ZM68.1998 45.3729L58.0915 49.9353L58.9787 46.9628L68.5594 44.1033L68.1998 45.3729Z" fill="white"/>
<path d="M54.4849 58.8008C54.0976 58.4135 53.5827 58.2002 53.0349 58.2002C52.4871 58.2002 51.9721 58.4135 51.5848 58.8008C51.1974 59.1881 50.9841 59.7031 50.9841 60.2509C50.9841 60.7987 51.1974 61.3137 51.5848 61.701C51.9721 62.0884 52.4871 62.3017 53.0349 62.3017C53.5827 62.3017 54.0976 62.0884 54.485 61.701C55.2845 60.9014 55.2845 59.6004 54.4849 58.8008ZM53.6564 60.8724C53.4904 61.0384 53.2696 61.1298 53.0349 61.1298C52.8002 61.1298 52.5795 61.0384 52.4134 60.8724C52.2475 60.7064 52.156 60.4857 52.156 60.251C52.156 60.0163 52.2475 59.7955 52.4134 59.6295C52.5794 59.4635 52.8001 59.3721 53.0349 59.3721C53.2697 59.3721 53.4904 59.4635 53.6564 59.6295C53.999 59.9721 53.999 60.5297 53.6564 60.8724Z" fill="white"/>
<path d="M55.1771 50.1963C54.8753 50.0793 54.5359 50.229 54.419 50.5308L54.4121 50.5485C54.2951 50.8502 54.4449 51.1896 54.7466 51.3066C54.8162 51.3335 54.8878 51.3464 54.9583 51.3464C55.1931 51.3464 55.4148 51.2042 55.5047 50.9721L55.5116 50.9544C55.6286 50.6527 55.4788 50.3133 55.1771 50.1963Z" fill="white"/>
</g>
<defs>
<clipPath id="clip0_747_711">
<rect width="30" height="30" fill="white" transform="translate(40 35)"/>
</clipPath>
</defs>
</svg>
