<svg width="160" height="220" viewBox="0 0 160 220" fill="none" xmlns="http://www.w3.org/2000/svg">
<rect width="160" height="220" rx="20" fill="#AD2B2B"/>
<rect x="2" y="2" width="156" height="212" rx="18" fill="white" stroke="#EB5757" stroke-width="4"/>
<path d="M55.8494 161.536L55.5374 163.672H47.8334V168.688H54.5534V170.824H47.8334V178H45.4814V161.536H55.8494ZM63.0526 165.496C64.0606 165.496 64.9486 165.712 65.7166 166.144C66.5006 166.56 67.1086 167.16 67.5406 167.944C67.9726 168.728 68.1886 169.64 68.1886 170.68V172.384H59.6206C59.6526 173.68 59.9566 174.68 60.5326 175.384C61.1086 176.088 61.9646 176.44 63.1006 176.44C64.1086 176.44 64.8526 176.144 65.3326 175.552C65.8126 174.96 66.0526 174.256 66.0526 173.44H68.1886C68.1886 174.4 67.9646 175.24 67.5166 175.96C67.0846 176.68 66.4766 177.24 65.6926 177.64C64.9246 178.04 64.0446 178.24 63.0526 178.24H62.9566C61.2286 178.24 59.8606 177.688 58.8526 176.584C57.8606 175.464 57.3646 173.976 57.3646 172.12V171.64C57.3646 170.424 57.5886 169.352 58.0366 168.424C58.4846 167.496 59.1246 166.776 59.9566 166.264C60.7886 165.752 61.7646 165.496 62.8846 165.496H63.0526ZM62.9326 167.296C62.0206 167.296 61.2766 167.576 60.7006 168.136C60.1406 168.696 59.7966 169.528 59.6686 170.632H65.9566V170.344C65.9566 169.432 65.6766 168.696 65.1166 168.136C64.5726 167.576 63.8446 167.296 62.9326 167.296ZM81.7166 175.6C81.7166 175.888 81.7806 176.104 81.9086 176.248C82.0366 176.376 82.1966 176.44 82.3886 176.44C82.7406 176.44 83.1006 176.328 83.4686 176.104V177.76C82.9726 178.08 82.4686 178.24 81.9566 178.24C81.0926 178.24 80.4846 178.064 80.1326 177.712C79.7966 177.36 79.6126 176.864 79.5806 176.224C79.1486 176.864 78.5886 177.36 77.9006 177.712C77.2286 178.064 76.4526 178.24 75.5726 178.24C74.3406 178.24 73.3246 177.88 72.5246 177.16C71.7406 176.424 71.3486 175.368 71.3486 173.992V165.736H73.6046V173.584C73.6046 175.488 74.4686 176.44 76.1966 176.44C76.7566 176.44 77.2846 176.288 77.7806 175.984C78.2926 175.68 78.7006 175.272 79.0046 174.76C79.3086 174.232 79.4606 173.656 79.4606 173.032V165.736H81.7166V175.6ZM88.6085 160.72V162.808H86.2565V160.72H88.6085ZM88.5605 165.736V178H86.3045V165.736H88.5605ZM94.8909 160.72V178H92.6349V160.72H94.8909ZM101.313 160.72V178H99.0568V160.72H101.313ZM110.303 165.496C111.311 165.496 112.199 165.712 112.967 166.144C113.751 166.56 114.359 167.16 114.791 167.944C115.223 168.728 115.439 169.64 115.439 170.68V172.384H106.871C106.903 173.68 107.207 174.68 107.783 175.384C108.359 176.088 109.215 176.44 110.351 176.44C111.359 176.44 112.103 176.144 112.583 175.552C113.063 174.96 113.303 174.256 113.303 173.44H115.439C115.439 174.4 115.215 175.24 114.767 175.96C114.335 176.68 113.727 177.24 112.943 177.64C112.175 178.04 111.295 178.24 110.303 178.24H110.207C108.479 178.24 107.111 177.688 106.103 176.584C105.111 175.464 104.615 173.976 104.615 172.12V171.64C104.615 170.424 104.839 169.352 105.287 168.424C105.735 167.496 106.375 166.776 107.207 166.264C108.039 165.752 109.015 165.496 110.135 165.496H110.303ZM110.183 167.296C109.271 167.296 108.527 167.576 107.951 168.136C107.391 168.696 107.047 169.528 106.919 170.632H113.207V170.344C113.207 169.432 112.927 168.696 112.367 168.136C111.823 167.576 111.095 167.296 110.183 167.296Z" fill="#EB5757"/>
<circle cx="80" cy="85" r="50" fill="#EB5757"/>
<path d="M102.337 60.6737C102.265 60.4289 102.086 60.223 101.842 60.1058C101.361 59.8708 100.764 60.0403 100.51 60.4843C100.509 60.4855 100.508 60.4866 100.508 60.4877C100.508 60.5129 95.5135 69.4534 80.1828 71.0113C78.183 71.2082 76.2283 71.6897 74.3882 72.4386C71.0945 73.76 68.3743 76.0597 66.6602 78.9719C65.0598 81.7074 64.397 84.8268 64.7595 87.9174C65.0265 90.1704 65.8419 92.3386 67.1449 94.2598C64.4218 96.0639 55.7843 102.301 55.0055 108.995C54.9483 109.494 55.341 109.942 55.8824 109.995C56.4238 110.048 56.9089 109.685 56.9661 109.186C57.6796 103.21 65.7833 97.4158 68.3103 95.7373C71.3438 99.1748 75.8858 101.115 80.7601 101.431C84.0407 101.627 87.3252 101.11 90.3506 99.9236C93.6349 98.652 96.5355 96.6635 98.803 94.1291C104.647 87.5958 107.43 76.6149 102.337 60.6737ZM68.8767 93.3602C68.5009 92.814 68.1697 92.2429 67.8855 91.6515C67.2875 90.4035 66.9018 89.078 66.7418 87.7214C66.4083 84.9995 66.9779 82.2481 68.3757 79.8313C69.8864 77.269 72.2828 75.2469 75.1833 74.087C76.8415 73.4207 78.6014 72.9953 80.4006 72.8256C90.5195 71.8205 96.472 67.6643 99.5436 64.6489C97.7389 70.1317 94.6318 75.1742 90.4487 79.4091L89.8496 73.8408C89.8191 73.3392 89.3537 72.9554 88.8102 72.9835C88.2667 73.0117 87.8507 73.4411 87.8812 73.9426C87.8827 73.9674 87.8853 73.9921 87.889 74.0166L88.6569 81.1731C84.0767 85.4599 77.7103 89.7669 68.8767 93.3602ZM97.2781 92.9631V92.9682C95.2178 95.2828 92.5788 97.1007 89.5882 98.2652C86.838 99.3376 83.8532 99.799 80.8744 99.612C76.7277 99.4182 72.8363 97.7049 70.064 94.8528C73.3128 93.5261 76.4541 91.986 79.4639 90.2443L88.1177 91.752C88.6555 91.8297 89.1599 91.4904 89.2441 90.9941C89.3254 90.5154 88.9857 90.0619 88.4717 89.9629L81.8221 88.802C84.8924 86.856 87.7505 84.6394 90.3561 82.1832C90.4039 82.1453 90.4476 82.1032 90.4868 82.0576C97.3598 75.454 100.284 68.9207 101.504 64.9002C104.87 78.1477 102.294 87.3646 97.2781 92.9631Z" fill="white"/>
</svg>
