<svg width="160" height="220" viewBox="0 0 160 220" fill="none" xmlns="http://www.w3.org/2000/svg">
<rect width="160" height="220" rx="20" fill="#0440A3"/>
<rect x="2" y="2" width="156" height="212" rx="18" fill="white" stroke="#0158E6" stroke-width="4"/>
<path d="M53.605 161.536C54.533 161.536 55.373 161.744 56.125 162.16C56.877 162.576 57.461 163.152 57.877 163.888C58.309 164.608 58.525 165.424 58.525 166.336C58.525 167.248 58.309 168.072 57.877 168.808C57.461 169.528 56.877 170.096 56.125 170.512C55.373 170.928 54.533 171.136 53.605 171.136H48.853V178H46.501V161.536H53.605ZM48.853 163.672V169H53.389C54.141 169 54.789 168.744 55.333 168.232C55.893 167.704 56.173 167.072 56.173 166.336C56.173 165.584 55.893 164.952 55.333 164.44C54.789 163.928 54.141 163.672 53.389 163.672H48.853ZM63.5655 160.72V162.808H61.2135V160.72H63.5655ZM63.5175 165.736V178H61.2615V165.736H63.5175ZM72.4159 165.496C73.4239 165.496 74.3119 165.712 75.0799 166.144C75.8639 166.56 76.4719 167.16 76.9039 167.944C77.3359 168.728 77.5519 169.64 77.5519 170.68V172.384H68.9839C69.0159 173.68 69.3199 174.68 69.8959 175.384C70.4719 176.088 71.3279 176.44 72.4639 176.44C73.4719 176.44 74.2159 176.144 74.6959 175.552C75.1759 174.96 75.4159 174.256 75.4159 173.44H77.5519C77.5519 174.4 77.3279 175.24 76.8799 175.96C76.4479 176.68 75.8399 177.24 75.0559 177.64C74.2879 178.04 73.4079 178.24 72.4159 178.24H72.3199C70.5919 178.24 69.2239 177.688 68.2159 176.584C67.2239 175.464 66.7279 173.976 66.7279 172.12V171.64C66.7279 170.424 66.9519 169.352 67.3999 168.424C67.8479 167.496 68.4879 166.776 69.3199 166.264C70.1519 165.752 71.1279 165.496 72.2479 165.496H72.4159ZM72.2959 167.296C71.3839 167.296 70.6399 167.576 70.0639 168.136C69.5039 168.696 69.1599 169.528 69.0319 170.632H75.3199V170.344C75.3199 169.432 75.0399 168.696 74.4799 168.136C73.9359 167.576 73.2079 167.296 72.2959 167.296ZM86.3518 165.496C87.4878 165.496 88.3758 165.864 89.0158 166.6C89.6558 167.32 89.9758 168.232 89.9758 169.336L89.9038 170.248H87.9118V169.72C87.9118 169.24 87.7918 168.816 87.5518 168.448C87.3118 168.08 87.0078 167.8 86.6398 167.608C86.2718 167.4 85.9038 167.296 85.5358 167.296C84.7678 167.296 84.1678 167.6 83.7358 168.208C83.3038 168.816 83.0878 169.64 83.0878 170.68V178H80.8318V165.736H82.4398L82.7758 167.56C82.8718 167.24 83.0878 166.92 83.4238 166.6C83.7598 166.28 84.1758 166.016 84.6718 165.808C85.1838 165.6 85.7438 165.496 86.3518 165.496ZM98.1175 165.496C99.2535 165.496 100.141 165.864 100.781 166.6C101.421 167.32 101.741 168.232 101.741 169.336L101.669 170.248H99.6775V169.72C99.6775 169.24 99.5575 168.816 99.3175 168.448C99.0775 168.08 98.7735 167.8 98.4055 167.608C98.0375 167.4 97.6695 167.296 97.3015 167.296C96.5335 167.296 95.9335 167.6 95.5015 168.208C95.0695 168.816 94.8535 169.64 94.8535 170.68V178H92.5975V165.736H94.2055L94.5415 167.56C94.6375 167.24 94.8535 166.92 95.1895 166.6C95.5255 166.28 95.9415 166.016 96.4375 165.808C96.9495 165.6 97.5095 165.496 98.1175 165.496ZM109.283 165.496C110.291 165.496 111.179 165.712 111.947 166.144C112.731 166.56 113.339 167.16 113.771 167.944C114.203 168.728 114.419 169.64 114.419 170.68V172.384H105.851C105.883 173.68 106.187 174.68 106.763 175.384C107.339 176.088 108.195 176.44 109.331 176.44C110.339 176.44 111.083 176.144 111.563 175.552C112.043 174.96 112.283 174.256 112.283 173.44H114.419C114.419 174.4 114.195 175.24 113.747 175.96C113.315 176.68 112.707 177.24 111.923 177.64C111.155 178.04 110.275 178.24 109.283 178.24H109.187C107.459 178.24 106.091 177.688 105.083 176.584C104.091 175.464 103.595 173.976 103.595 172.12V171.64C103.595 170.424 103.819 169.352 104.267 168.424C104.715 167.496 105.355 166.776 106.187 166.264C107.019 165.752 107.995 165.496 109.115 165.496H109.283ZM109.163 167.296C108.251 167.296 107.507 167.576 106.931 168.136C106.371 168.696 106.027 169.528 105.899 170.632H112.187V170.344C112.187 169.432 111.907 168.696 111.347 168.136C110.803 167.576 110.075 167.296 109.163 167.296Z" fill="#0440A3"/>
<circle cx="80" cy="85" r="50" fill="#0440A3"/>
<path d="M95.0438 69.9378C95.0169 69.8087 94.9471 69.6924 94.8458 69.6078L84.0841 60.6244C83.9831 60.5402 83.8568 60.4923 83.7254 60.4885C83.5939 60.4847 83.4651 60.5253 83.3595 60.6036L74.2945 67.3284L65.3808 71.1092C65.2889 71.1482 65.2084 71.21 65.1471 71.2889C65.0858 71.3677 65.0456 71.461 65.0304 71.5597L61.796 92.611C61.7834 92.6929 61.7883 92.7765 61.8104 92.8564L65.0152 104.434C65.0371 104.513 65.0753 104.587 65.1273 104.65C65.1794 104.713 65.2442 104.765 65.3175 104.802L74.5996 109.45C74.7004 109.501 74.8136 109.521 74.9257 109.509L90.9277 107.759C91.0169 107.749 91.1027 107.719 91.1785 107.671C91.2542 107.623 91.3179 107.558 91.3645 107.481L96.4707 99.0941C96.5142 99.0226 96.5419 98.9427 96.5518 98.8597L98.2065 85.2188C98.2142 85.1553 98.2115 85.091 98.1984 85.0283L95.0438 69.9378ZM96.7913 84.0246L90.0884 80.3577L94.2464 71.8501L96.7913 84.0246ZM84.2919 62.3242L93.7414 70.2126L89.2747 79.3035L84.2739 69.8765L84.2919 62.3242ZM95.039 97.9511L77.619 93.5728L73.3176 88.0943L88.9576 81.3742L95.039 97.9511ZM83.5098 70.9646L88.4555 80.3142L73.0176 86.9473L73.3894 79.4634L83.5098 70.9646ZM83.1202 62.2405L83.1035 69.2789L75.9453 67.5634L83.1202 62.2405ZM74.6387 68.4555L82.4219 70.3207L72.8613 78.3631L66.6211 71.8563L74.6387 68.4555ZM66.0078 72.9144L72.22 79.3945L71.8181 87.4805L63.1236 91.687L66.0078 72.9144ZM63.0702 93.0147L72.2168 88.5894L76.6882 94.2845L76.3668 102.442L66.0108 103.638L63.0702 93.0147ZM74.9699 108.325L67.6005 104.634L76.879 103.563L87.9439 106.906L74.9699 108.325ZM90.5994 106.484L77.5356 102.537L77.8389 94.8363L95.0563 99.1638L90.5994 106.484ZM95.6817 96.3014L90.3819 81.8538L96.9954 85.4717L95.6817 96.3014Z" fill="white"/>
<path d="M67.0249 75.8104C66.8716 75.785 66.7145 75.8215 66.5881 75.9119C66.4618 76.0023 66.3765 76.1391 66.351 76.2924L66.2924 76.644C66.267 76.7972 66.3035 76.9543 66.3939 77.0807C66.4843 77.207 66.6211 77.2923 66.7744 77.3178C66.8064 77.3231 66.8387 77.3258 66.8711 77.3258C67.0098 77.3256 67.1439 77.2763 67.2496 77.1866C67.3553 77.0969 67.4258 76.9726 67.4485 76.8358L67.5071 76.4842C67.5325 76.3309 67.496 76.1738 67.4055 76.0474C67.3151 75.9211 67.1782 75.8358 67.0249 75.8104Z" fill="white"/>
<path d="M66.6568 78.0274C66.5035 78.002 66.3464 78.0385 66.2201 78.1289C66.0937 78.2194 66.0084 78.3563 65.983 78.5095L64.898 85.0455C64.8726 85.1988 64.9091 85.3558 64.9995 85.4822C65.0899 85.6086 65.2268 85.6939 65.3801 85.7193C65.412 85.7246 65.4443 85.7273 65.4766 85.7273C65.6153 85.7272 65.7494 85.6778 65.8551 85.5881C65.9608 85.4984 66.0313 85.3741 66.054 85.2373L67.139 78.7017C67.1517 78.6258 67.1492 78.5481 67.1318 78.4731C67.1145 78.3981 67.0825 78.3273 67.0377 78.2646C66.9929 78.202 66.9362 78.1488 66.8708 78.1081C66.8055 78.0674 66.7328 78.04 66.6568 78.0274Z" fill="white"/>
</svg>
