<svg width="224" height="100" viewBox="0 0 224 100" fill="none" xmlns="http://www.w3.org/2000/svg">
<rect width="224" height="100" rx="20" fill="#0440A3"/>
<rect width="224" height="90" rx="20" fill="#0158E6"/>
<path d="M109.312 36.536C110.24 36.536 111.08 36.744 111.832 37.16C112.584 37.576 113.168 38.152 113.584 38.888C114.016 39.608 114.232 40.424 114.232 41.336C114.232 42.248 114.016 43.072 113.584 43.808C113.168 44.528 112.584 45.096 111.832 45.512C111.08 45.928 110.24 46.136 109.312 46.136H104.56V53H102.208V36.536H109.312ZM104.56 38.672V44H109.096C109.848 44 110.496 43.744 111.04 43.232C111.6 42.704 111.88 42.072 111.88 41.336C111.88 40.584 111.6 39.952 111.04 39.44C110.496 38.928 109.848 38.672 109.096 38.672H104.56ZM119.273 35.72V37.808H116.921V35.72H119.273ZM119.225 40.736V53H116.969V40.736H119.225ZM128.123 40.496C129.131 40.496 130.019 40.712 130.787 41.144C131.571 41.56 132.179 42.16 132.611 42.944C133.043 43.728 133.259 44.64 133.259 45.68V47.384H124.691C124.723 48.68 125.027 49.68 125.603 50.384C126.179 51.088 127.035 51.44 128.171 51.44C129.179 51.44 129.923 51.144 130.403 50.552C130.883 49.96 131.123 49.256 131.123 48.44H133.259C133.259 49.4 133.035 50.24 132.587 50.96C132.155 51.68 131.547 52.24 130.763 52.64C129.995 53.04 129.115 53.24 128.123 53.24H128.027C126.299 53.24 124.931 52.688 123.923 51.584C122.931 50.464 122.435 48.976 122.435 47.12V46.64C122.435 45.424 122.659 44.352 123.107 43.424C123.555 42.496 124.195 41.776 125.027 41.264C125.859 40.752 126.835 40.496 127.955 40.496H128.123ZM128.003 42.296C127.091 42.296 126.347 42.576 125.771 43.136C125.211 43.696 124.867 44.528 124.739 45.632H131.027V45.344C131.027 44.432 130.747 43.696 130.187 43.136C129.643 42.576 128.915 42.296 128.003 42.296ZM142.059 40.496C143.195 40.496 144.083 40.864 144.723 41.6C145.363 42.32 145.683 43.232 145.683 44.336L145.611 45.248H143.619V44.72C143.619 44.24 143.499 43.816 143.259 43.448C143.019 43.08 142.715 42.8 142.347 42.608C141.979 42.4 141.611 42.296 141.243 42.296C140.475 42.296 139.875 42.6 139.443 43.208C139.011 43.816 138.795 44.64 138.795 45.68V53H136.539V40.736H138.147L138.483 42.56C138.579 42.24 138.795 41.92 139.131 41.6C139.467 41.28 139.883 41.016 140.379 40.808C140.891 40.6 141.451 40.496 142.059 40.496ZM153.825 40.496C154.961 40.496 155.849 40.864 156.489 41.6C157.129 42.32 157.449 43.232 157.449 44.336L157.377 45.248H155.385V44.72C155.385 44.24 155.265 43.816 155.025 43.448C154.785 43.08 154.481 42.8 154.113 42.608C153.745 42.4 153.377 42.296 153.009 42.296C152.241 42.296 151.641 42.6 151.209 43.208C150.777 43.816 150.561 44.64 150.561 45.68V53H148.305V40.736H149.913L150.249 42.56C150.345 42.24 150.561 41.92 150.897 41.6C151.233 41.28 151.649 41.016 152.145 40.808C152.657 40.6 153.217 40.496 153.825 40.496ZM164.99 40.496C165.998 40.496 166.886 40.712 167.654 41.144C168.438 41.56 169.046 42.16 169.478 42.944C169.91 43.728 170.126 44.64 170.126 45.68V47.384H161.558C161.59 48.68 161.894 49.68 162.47 50.384C163.046 51.088 163.902 51.44 165.038 51.44C166.046 51.44 166.79 51.144 167.27 50.552C167.75 49.96 167.99 49.256 167.99 48.44H170.126C170.126 49.4 169.902 50.24 169.454 50.96C169.022 51.68 168.414 52.24 167.63 52.64C166.862 53.04 165.982 53.24 164.99 53.24H164.894C163.166 53.24 161.798 52.688 160.79 51.584C159.798 50.464 159.302 48.976 159.302 47.12V46.64C159.302 45.424 159.526 44.352 159.974 43.424C160.422 42.496 161.062 41.776 161.894 41.264C162.726 40.752 163.702 40.496 164.822 40.496H164.99ZM164.87 42.296C163.958 42.296 163.214 42.576 162.638 43.136C162.078 43.696 161.734 44.528 161.606 45.632H167.894V45.344C167.894 44.432 167.614 43.696 167.054 43.136C166.51 42.576 165.782 42.296 164.87 42.296ZM181.905 36.536C181.873 36.808 181.673 40.904 181.305 48.824H179.145V36.536H181.905ZM181.737 50.336V53H179.313V50.336H181.737Z" fill="white"/>
<circle cx="55" cy="45" r="30" fill="#0440A3"/>
<path d="M64.0263 35.9627C64.0101 35.8852 63.9682 35.8154 63.9074 35.7647L57.4504 30.3747C57.3899 30.3241 57.314 30.2954 57.2352 30.2931C57.1563 30.2908 57.079 30.3152 57.0156 30.3622L51.5767 34.3971L46.2285 36.6655C46.1733 36.6889 46.125 36.726 46.0882 36.7733C46.0514 36.8206 46.0273 36.8766 46.0182 36.9358L44.0776 49.5666C44.07 49.6158 44.073 49.6659 44.0862 49.7138L46.0091 56.6605C46.0222 56.7079 46.0451 56.752 46.0764 56.79C46.1076 56.828 46.1465 56.859 46.1905 56.8811L51.7597 59.6701C51.8202 59.7005 51.8881 59.7127 51.9554 59.7053L61.5566 58.6555C61.6101 58.6497 61.6616 58.6316 61.707 58.6027C61.7525 58.5738 61.7907 58.5349 61.8187 58.4889L64.8824 53.4564C64.9085 53.4136 64.9251 53.3656 64.9311 53.3158L65.9239 45.1313C65.9285 45.0932 65.9268 45.0546 65.919 45.017L64.0263 35.9627ZM65.0747 44.4148L61.053 42.2146L63.5478 37.1101L65.0747 44.4148ZM57.5751 31.3945L63.2448 36.1276L60.5648 41.5821L57.5643 35.9259L57.5751 31.3945ZM64.0234 52.7707L53.5714 50.1437L50.9905 46.8566L60.3745 42.8245L64.0234 52.7707ZM57.1059 36.5787L60.0733 42.1885L50.8105 46.1684L51.0336 41.678L57.1059 36.5787ZM56.8721 31.3443L56.8621 35.5674L52.5672 34.538L56.8721 31.3443ZM51.7832 35.0733L56.4531 36.1924L50.7168 41.0179L46.9726 37.1138L51.7832 35.0733ZM46.6047 37.7486L50.332 41.6367L50.0909 46.4883L44.8741 49.0122L46.6047 37.7486ZM44.8421 49.8088L50.33 47.1536L53.0129 50.5707L52.82 55.4655L46.6065 56.1829L44.8421 49.8088ZM51.9819 58.9947L47.5603 56.7806L53.1274 56.1378L59.7663 58.1439L51.9819 58.9947ZM61.3596 57.8906L53.5214 55.5223L53.7033 50.9018L64.0338 53.4983L61.3596 57.8906ZM64.409 51.7808L61.2291 43.1123L65.1972 45.283L64.409 51.7808Z" fill="white"/>
<path d="M47.2149 39.4862C47.123 39.4709 47.0287 39.4928 46.9529 39.5471C46.8771 39.6013 46.8259 39.6834 46.8106 39.7754L46.7755 39.9863C46.7602 40.0783 46.7821 40.1725 46.8364 40.2484C46.8906 40.3242 46.9727 40.3753 47.0646 40.3906C47.0838 40.3938 47.1033 40.3954 47.1227 40.3954C47.2059 40.3953 47.2864 40.3657 47.3498 40.3119C47.4132 40.2581 47.4555 40.1835 47.4691 40.1014L47.5043 39.8905C47.5195 39.7985 47.4976 39.7042 47.4433 39.6284C47.3891 39.5526 47.3069 39.5014 47.2149 39.4862Z" fill="white"/>
<path d="M46.9941 40.8165C46.9021 40.8013 46.8079 40.8232 46.732 40.8774C46.6562 40.9317 46.6051 41.0138 46.5898 41.1058L45.9388 45.0273C45.9236 45.1193 45.9455 45.2136 45.9997 45.2894C46.0539 45.3652 46.1361 45.4164 46.228 45.4316C46.2472 45.4348 46.2666 45.4364 46.286 45.4364C46.3692 45.4363 46.4496 45.4067 46.5131 45.3529C46.5765 45.2991 46.6188 45.2245 46.6324 45.1424L47.2834 41.2211C47.291 41.1755 47.2895 41.1289 47.2791 41.0839C47.2687 41.0389 47.2495 40.9964 47.2226 40.9588C47.1957 40.9213 47.1617 40.8893 47.1225 40.8649C47.0833 40.8405 47.0397 40.824 46.9941 40.8165Z" fill="white"/>
</svg>
