<svg width="224" height="100" viewBox="0 0 224 100" fill="none" xmlns="http://www.w3.org/2000/svg">
<rect width="224" height="100" rx="20" fill="#0440A3"/>
<rect width="224" height="86" rx="20" fill="#0158E6"/>
<path d="M109.312 34.536C110.24 34.536 111.08 34.744 111.832 35.16C112.584 35.576 113.168 36.152 113.584 36.888C114.016 37.608 114.232 38.424 114.232 39.336C114.232 40.248 114.016 41.072 113.584 41.808C113.168 42.528 112.584 43.096 111.832 43.512C111.08 43.928 110.24 44.136 109.312 44.136H104.56V51H102.208V34.536H109.312ZM104.56 36.672V42H109.096C109.848 42 110.496 41.744 111.04 41.232C111.6 40.704 111.88 40.072 111.88 39.336C111.88 38.584 111.6 37.952 111.04 37.44C110.496 36.928 109.848 36.672 109.096 36.672H104.56ZM119.273 33.72V35.808H116.921V33.72H119.273ZM119.225 38.736V51H116.969V38.736H119.225ZM128.123 38.496C129.131 38.496 130.019 38.712 130.787 39.144C131.571 39.56 132.179 40.16 132.611 40.944C133.043 41.728 133.259 42.64 133.259 43.68V45.384H124.691C124.723 46.68 125.027 47.68 125.603 48.384C126.179 49.088 127.035 49.44 128.171 49.44C129.179 49.44 129.923 49.144 130.403 48.552C130.883 47.96 131.123 47.256 131.123 46.44H133.259C133.259 47.4 133.035 48.24 132.587 48.96C132.155 49.68 131.547 50.24 130.763 50.64C129.995 51.04 129.115 51.24 128.123 51.24H128.027C126.299 51.24 124.931 50.688 123.923 49.584C122.931 48.464 122.435 46.976 122.435 45.12V44.64C122.435 43.424 122.659 42.352 123.107 41.424C123.555 40.496 124.195 39.776 125.027 39.264C125.859 38.752 126.835 38.496 127.955 38.496H128.123ZM128.003 40.296C127.091 40.296 126.347 40.576 125.771 41.136C125.211 41.696 124.867 42.528 124.739 43.632H131.027V43.344C131.027 42.432 130.747 41.696 130.187 41.136C129.643 40.576 128.915 40.296 128.003 40.296ZM142.059 38.496C143.195 38.496 144.083 38.864 144.723 39.6C145.363 40.32 145.683 41.232 145.683 42.336L145.611 43.248H143.619V42.72C143.619 42.24 143.499 41.816 143.259 41.448C143.019 41.08 142.715 40.8 142.347 40.608C141.979 40.4 141.611 40.296 141.243 40.296C140.475 40.296 139.875 40.6 139.443 41.208C139.011 41.816 138.795 42.64 138.795 43.68V51H136.539V38.736H138.147L138.483 40.56C138.579 40.24 138.795 39.92 139.131 39.6C139.467 39.28 139.883 39.016 140.379 38.808C140.891 38.6 141.451 38.496 142.059 38.496ZM153.825 38.496C154.961 38.496 155.849 38.864 156.489 39.6C157.129 40.32 157.449 41.232 157.449 42.336L157.377 43.248H155.385V42.72C155.385 42.24 155.265 41.816 155.025 41.448C154.785 41.08 154.481 40.8 154.113 40.608C153.745 40.4 153.377 40.296 153.009 40.296C152.241 40.296 151.641 40.6 151.209 41.208C150.777 41.816 150.561 42.64 150.561 43.68V51H148.305V38.736H149.913L150.249 40.56C150.345 40.24 150.561 39.92 150.897 39.6C151.233 39.28 151.649 39.016 152.145 38.808C152.657 38.6 153.217 38.496 153.825 38.496ZM164.99 38.496C165.998 38.496 166.886 38.712 167.654 39.144C168.438 39.56 169.046 40.16 169.478 40.944C169.91 41.728 170.126 42.64 170.126 43.68V45.384H161.558C161.59 46.68 161.894 47.68 162.47 48.384C163.046 49.088 163.902 49.44 165.038 49.44C166.046 49.44 166.79 49.144 167.27 48.552C167.75 47.96 167.99 47.256 167.99 46.44H170.126C170.126 47.4 169.902 48.24 169.454 48.96C169.022 49.68 168.414 50.24 167.63 50.64C166.862 51.04 165.982 51.24 164.99 51.24H164.894C163.166 51.24 161.798 50.688 160.79 49.584C159.798 48.464 159.302 46.976 159.302 45.12V44.64C159.302 43.424 159.526 42.352 159.974 41.424C160.422 40.496 161.062 39.776 161.894 39.264C162.726 38.752 163.702 38.496 164.822 38.496H164.99ZM164.87 40.296C163.958 40.296 163.214 40.576 162.638 41.136C162.078 41.696 161.734 42.528 161.606 43.632H167.894V43.344C167.894 42.432 167.614 41.696 167.054 41.136C166.51 40.576 165.782 40.296 164.87 40.296ZM181.905 34.536C181.873 34.808 181.673 38.904 181.305 46.824H179.145V34.536H181.905ZM181.737 48.336V51H179.313V48.336H181.737Z" fill="white"/>
<circle cx="55" cy="43" r="30" fill="#0440A3"/>
<path d="M64.0263 33.9627C64.0101 33.8852 63.9682 33.8154 63.9074 33.7647L57.4504 28.3747C57.3899 28.3241 57.314 28.2954 57.2352 28.2931C57.1563 28.2908 57.079 28.3152 57.0156 28.3622L51.5767 32.3971L46.2285 34.6655C46.1733 34.6889 46.125 34.726 46.0882 34.7733C46.0514 34.8206 46.0273 34.8766 46.0182 34.9358L44.0776 47.5666C44.07 47.6158 44.073 47.6659 44.0862 47.7138L46.0091 54.6605C46.0222 54.7079 46.0451 54.752 46.0764 54.79C46.1076 54.828 46.1465 54.859 46.1905 54.8811L51.7597 57.6701C51.8202 57.7005 51.8881 57.7127 51.9554 57.7053L61.5566 56.6555C61.6101 56.6497 61.6616 56.6316 61.707 56.6027C61.7525 56.5738 61.7907 56.5349 61.8187 56.4889L64.8824 51.4564C64.9085 51.4136 64.9251 51.3656 64.9311 51.3158L65.9239 43.1313C65.9285 43.0932 65.9268 43.0546 65.919 43.017L64.0263 33.9627ZM65.0747 42.4148L61.053 40.2146L63.5478 35.1101L65.0747 42.4148ZM57.5751 29.3945L63.2448 34.1276L60.5648 39.5821L57.5643 33.9259L57.5751 29.3945ZM64.0234 50.7707L53.5714 48.1437L50.9905 44.8566L60.3745 40.8245L64.0234 50.7707ZM57.1059 34.5787L60.0733 40.1885L50.8105 44.1684L51.0336 39.678L57.1059 34.5787ZM56.8721 29.3443L56.8621 33.5674L52.5672 32.538L56.8721 29.3443ZM51.7832 33.0733L56.4531 34.1924L50.7168 39.0179L46.9726 35.1138L51.7832 33.0733ZM46.6047 35.7486L50.332 39.6367L50.0909 44.4883L44.8741 47.0122L46.6047 35.7486ZM44.8421 47.8088L50.33 45.1536L53.0129 48.5707L52.82 53.4655L46.6065 54.1829L44.8421 47.8088ZM51.9819 56.9947L47.5603 54.7806L53.1274 54.1378L59.7663 56.1439L51.9819 56.9947ZM61.3596 55.8906L53.5214 53.5223L53.7033 48.9018L64.0338 51.4983L61.3596 55.8906ZM64.409 49.7808L61.2291 41.1123L65.1972 43.283L64.409 49.7808Z" fill="white"/>
<path d="M47.2149 37.4862C47.123 37.4709 47.0287 37.4928 46.9529 37.5471C46.8771 37.6013 46.8259 37.6834 46.8106 37.7754L46.7755 37.9863C46.7602 38.0783 46.7821 38.1725 46.8364 38.2484C46.8906 38.3242 46.9727 38.3753 47.0646 38.3906C47.0838 38.3938 47.1033 38.3954 47.1227 38.3954C47.2059 38.3953 47.2864 38.3657 47.3498 38.3119C47.4132 38.2581 47.4555 38.1835 47.4691 38.1014L47.5043 37.8905C47.5195 37.7985 47.4976 37.7042 47.4433 37.6284C47.3891 37.5526 47.3069 37.5014 47.2149 37.4862Z" fill="white"/>
<path d="M46.9941 38.8165C46.9021 38.8013 46.8079 38.8232 46.732 38.8774C46.6562 38.9317 46.6051 39.0138 46.5898 39.1058L45.9388 43.0273C45.9236 43.1193 45.9455 43.2136 45.9997 43.2894C46.0539 43.3652 46.1361 43.4164 46.228 43.4316C46.2472 43.4348 46.2666 43.4364 46.286 43.4364C46.3692 43.4363 46.4496 43.4067 46.5131 43.3529C46.5765 43.2991 46.6188 43.2245 46.6324 43.1424L47.2834 39.2211C47.291 39.1755 47.2895 39.1289 47.2791 39.0839C47.2687 39.0389 47.2495 38.9964 47.2226 38.9588C47.1957 38.9213 47.1617 38.8893 47.1225 38.8649C47.0833 38.8405 47.0397 38.824 46.9941 38.8165Z" fill="white"/>
</svg>
