<svg width="224" height="100" viewBox="0 0 224 100" fill="none" xmlns="http://www.w3.org/2000/svg">
<rect width="224" height="100" rx="20" fill="#0440A3"/>
<rect width="224" height="96" rx="20" fill="#0158E6"/>
<path d="M109.312 41.536C110.24 41.536 111.08 41.744 111.832 42.16C112.584 42.576 113.168 43.152 113.584 43.888C114.016 44.608 114.232 45.424 114.232 46.336C114.232 47.248 114.016 48.072 113.584 48.808C113.168 49.528 112.584 50.096 111.832 50.512C111.08 50.928 110.24 51.136 109.312 51.136H104.56V58H102.208V41.536H109.312ZM104.56 43.672V49H109.096C109.848 49 110.496 48.744 111.04 48.232C111.6 47.704 111.88 47.072 111.88 46.336C111.88 45.584 111.6 44.952 111.04 44.44C110.496 43.928 109.848 43.672 109.096 43.672H104.56ZM119.273 40.72V42.808H116.921V40.72H119.273ZM119.225 45.736V58H116.969V45.736H119.225ZM128.123 45.496C129.131 45.496 130.019 45.712 130.787 46.144C131.571 46.56 132.179 47.16 132.611 47.944C133.043 48.728 133.259 49.64 133.259 50.68V52.384H124.691C124.723 53.68 125.027 54.68 125.603 55.384C126.179 56.088 127.035 56.44 128.171 56.44C129.179 56.44 129.923 56.144 130.403 55.552C130.883 54.96 131.123 54.256 131.123 53.44H133.259C133.259 54.4 133.035 55.24 132.587 55.96C132.155 56.68 131.547 57.24 130.763 57.64C129.995 58.04 129.115 58.24 128.123 58.24H128.027C126.299 58.24 124.931 57.688 123.923 56.584C122.931 55.464 122.435 53.976 122.435 52.12V51.64C122.435 50.424 122.659 49.352 123.107 48.424C123.555 47.496 124.195 46.776 125.027 46.264C125.859 45.752 126.835 45.496 127.955 45.496H128.123ZM128.003 47.296C127.091 47.296 126.347 47.576 125.771 48.136C125.211 48.696 124.867 49.528 124.739 50.632H131.027V50.344C131.027 49.432 130.747 48.696 130.187 48.136C129.643 47.576 128.915 47.296 128.003 47.296ZM142.059 45.496C143.195 45.496 144.083 45.864 144.723 46.6C145.363 47.32 145.683 48.232 145.683 49.336L145.611 50.248H143.619V49.72C143.619 49.24 143.499 48.816 143.259 48.448C143.019 48.08 142.715 47.8 142.347 47.608C141.979 47.4 141.611 47.296 141.243 47.296C140.475 47.296 139.875 47.6 139.443 48.208C139.011 48.816 138.795 49.64 138.795 50.68V58H136.539V45.736H138.147L138.483 47.56C138.579 47.24 138.795 46.92 139.131 46.6C139.467 46.28 139.883 46.016 140.379 45.808C140.891 45.6 141.451 45.496 142.059 45.496ZM153.825 45.496C154.961 45.496 155.849 45.864 156.489 46.6C157.129 47.32 157.449 48.232 157.449 49.336L157.377 50.248H155.385V49.72C155.385 49.24 155.265 48.816 155.025 48.448C154.785 48.08 154.481 47.8 154.113 47.608C153.745 47.4 153.377 47.296 153.009 47.296C152.241 47.296 151.641 47.6 151.209 48.208C150.777 48.816 150.561 49.64 150.561 50.68V58H148.305V45.736H149.913L150.249 47.56C150.345 47.24 150.561 46.92 150.897 46.6C151.233 46.28 151.649 46.016 152.145 45.808C152.657 45.6 153.217 45.496 153.825 45.496ZM164.99 45.496C165.998 45.496 166.886 45.712 167.654 46.144C168.438 46.56 169.046 47.16 169.478 47.944C169.91 48.728 170.126 49.64 170.126 50.68V52.384H161.558C161.59 53.68 161.894 54.68 162.47 55.384C163.046 56.088 163.902 56.44 165.038 56.44C166.046 56.44 166.79 56.144 167.27 55.552C167.75 54.96 167.99 54.256 167.99 53.44H170.126C170.126 54.4 169.902 55.24 169.454 55.96C169.022 56.68 168.414 57.24 167.63 57.64C166.862 58.04 165.982 58.24 164.99 58.24H164.894C163.166 58.24 161.798 57.688 160.79 56.584C159.798 55.464 159.302 53.976 159.302 52.12V51.64C159.302 50.424 159.526 49.352 159.974 48.424C160.422 47.496 161.062 46.776 161.894 46.264C162.726 45.752 163.702 45.496 164.822 45.496H164.99ZM164.87 47.296C163.958 47.296 163.214 47.576 162.638 48.136C162.078 48.696 161.734 49.528 161.606 50.632H167.894V50.344C167.894 49.432 167.614 48.696 167.054 48.136C166.51 47.576 165.782 47.296 164.87 47.296ZM181.905 41.536C181.873 41.808 181.673 45.904 181.305 53.824H179.145V41.536H181.905ZM181.737 55.336V58H179.313V55.336H181.737Z" fill="white"/>
<circle cx="55" cy="50" r="30" fill="#0440A3"/>
<path d="M64.0263 40.9627C64.0101 40.8852 63.9682 40.8154 63.9074 40.7647L57.4504 35.3747C57.3899 35.3241 57.314 35.2954 57.2352 35.2931C57.1563 35.2908 57.079 35.3152 57.0156 35.3622L51.5767 39.3971L46.2285 41.6655C46.1733 41.6889 46.125 41.726 46.0882 41.7733C46.0514 41.8206 46.0273 41.8766 46.0182 41.9358L44.0776 54.5666C44.07 54.6158 44.073 54.6659 44.0862 54.7138L46.0091 61.6605C46.0222 61.7079 46.0451 61.752 46.0764 61.79C46.1076 61.828 46.1465 61.859 46.1905 61.8811L51.7597 64.6701C51.8202 64.7005 51.8881 64.7127 51.9554 64.7053L61.5566 63.6555C61.6101 63.6497 61.6616 63.6316 61.707 63.6027C61.7525 63.5738 61.7907 63.5349 61.8187 63.4889L64.8824 58.4564C64.9085 58.4136 64.9251 58.3656 64.9311 58.3158L65.9239 50.1313C65.9285 50.0932 65.9268 50.0546 65.919 50.017L64.0263 40.9627ZM65.0747 49.4148L61.053 47.2146L63.5478 42.1101L65.0747 49.4148ZM57.5751 36.3945L63.2448 41.1276L60.5648 46.5821L57.5643 40.9259L57.5751 36.3945ZM64.0234 57.7707L53.5714 55.1437L50.9905 51.8566L60.3745 47.8245L64.0234 57.7707ZM57.1059 41.5787L60.0733 47.1885L50.8105 51.1684L51.0336 46.678L57.1059 41.5787ZM56.8721 36.3443L56.8621 40.5674L52.5672 39.538L56.8721 36.3443ZM51.7832 40.0733L56.4531 41.1924L50.7168 46.0179L46.9726 42.1138L51.7832 40.0733ZM46.6047 42.7486L50.332 46.6367L50.0909 51.4883L44.8741 54.0122L46.6047 42.7486ZM44.8421 54.8088L50.33 52.1536L53.0129 55.5707L52.82 60.4655L46.6065 61.1829L44.8421 54.8088ZM51.9819 63.9947L47.5603 61.7806L53.1274 61.1378L59.7663 63.1439L51.9819 63.9947ZM61.3596 62.8906L53.5214 60.5223L53.7033 55.9018L64.0338 58.4983L61.3596 62.8906ZM64.409 56.7808L61.2291 48.1123L65.1972 50.283L64.409 56.7808Z" fill="white"/>
<path d="M47.2149 44.4862C47.123 44.4709 47.0287 44.4928 46.9529 44.5471C46.8771 44.6013 46.8259 44.6834 46.8106 44.7754L46.7755 44.9863C46.7602 45.0783 46.7821 45.1725 46.8364 45.2484C46.8906 45.3242 46.9727 45.3753 47.0646 45.3906C47.0838 45.3938 47.1033 45.3954 47.1227 45.3954C47.2059 45.3953 47.2864 45.3657 47.3498 45.3119C47.4132 45.2581 47.4555 45.1835 47.4691 45.1014L47.5043 44.8905C47.5195 44.7985 47.4976 44.7042 47.4433 44.6284C47.3891 44.5526 47.3069 44.5014 47.2149 44.4862Z" fill="white"/>
<path d="M46.9941 45.8165C46.9021 45.8013 46.8079 45.8232 46.732 45.8774C46.6562 45.9317 46.6051 46.0138 46.5898 46.1058L45.9388 50.0273C45.9236 50.1193 45.9455 50.2136 45.9997 50.2894C46.0539 50.3652 46.1361 50.4164 46.228 50.4316C46.2472 50.4348 46.2666 50.4364 46.286 50.4364C46.3692 50.4363 46.4496 50.4067 46.5131 50.3529C46.5765 50.2991 46.6188 50.2245 46.6324 50.1424L47.2834 46.2211C47.291 46.1755 47.2895 46.1289 47.2791 46.0839C47.2687 46.0389 47.2495 45.9964 47.2226 45.9588C47.1957 45.9213 47.1617 45.8893 47.1225 45.8649C47.0833 45.8405 47.0397 45.824 46.9941 45.8165Z" fill="white"/>
</svg>
