<svg width="224" height="100" viewBox="0 0 224 100" fill="none" xmlns="http://www.w3.org/2000/svg">
<rect width="224" height="100" rx="20" fill="#0440A3"/>
<rect width="224" height="90" rx="20" fill="#0158E6"/>
<path d="M112.576 36.536L112.264 38.672H104.56V43.688H111.28V45.824H104.56V53H102.208V36.536H112.576ZM119.779 40.496C120.787 40.496 121.675 40.712 122.443 41.144C123.227 41.56 123.835 42.16 124.267 42.944C124.699 43.728 124.915 44.64 124.915 45.68V47.384H116.347C116.379 48.68 116.683 49.68 117.259 50.384C117.835 51.088 118.691 51.44 119.827 51.44C120.835 51.44 121.579 51.144 122.059 50.552C122.539 49.96 122.779 49.256 122.779 48.44H124.915C124.915 49.4 124.691 50.24 124.243 50.96C123.811 51.68 123.203 52.24 122.419 52.64C121.651 53.04 120.771 53.24 119.779 53.24H119.683C117.955 53.24 116.587 52.688 115.579 51.584C114.587 50.464 114.091 48.976 114.091 47.12V46.64C114.091 45.424 114.315 44.352 114.763 43.424C115.211 42.496 115.851 41.776 116.683 41.264C117.515 40.752 118.491 40.496 119.611 40.496H119.779ZM119.659 42.296C118.747 42.296 118.003 42.576 117.427 43.136C116.867 43.696 116.523 44.528 116.395 45.632H122.683V45.344C122.683 44.432 122.403 43.696 121.843 43.136C121.299 42.576 120.571 42.296 119.659 42.296ZM138.443 50.6C138.443 50.888 138.507 51.104 138.635 51.248C138.763 51.376 138.923 51.44 139.115 51.44C139.467 51.44 139.827 51.328 140.195 51.104V52.76C139.699 53.08 139.195 53.24 138.683 53.24C137.819 53.24 137.211 53.064 136.859 52.712C136.523 52.36 136.339 51.864 136.307 51.224C135.875 51.864 135.315 52.36 134.627 52.712C133.955 53.064 133.179 53.24 132.299 53.24C131.067 53.24 130.051 52.88 129.251 52.16C128.467 51.424 128.075 50.368 128.075 48.992V40.736H130.331V48.584C130.331 50.488 131.195 51.44 132.923 51.44C133.483 51.44 134.011 51.288 134.507 50.984C135.019 50.68 135.427 50.272 135.731 49.76C136.035 49.232 136.187 48.656 136.187 48.032V40.736H138.443V50.6ZM145.335 35.72V37.808H142.983V35.72H145.335ZM145.287 40.736V53H143.031V40.736H145.287ZM151.617 35.72V53H149.361V35.72H151.617ZM158.039 35.72V53H155.783V35.72H158.039ZM167.029 40.496C168.037 40.496 168.925 40.712 169.693 41.144C170.477 41.56 171.085 42.16 171.517 42.944C171.949 43.728 172.165 44.64 172.165 45.68V47.384H163.597C163.629 48.68 163.933 49.68 164.509 50.384C165.085 51.088 165.941 51.44 167.077 51.44C168.085 51.44 168.829 51.144 169.309 50.552C169.789 49.96 170.029 49.256 170.029 48.44H172.165C172.165 49.4 171.941 50.24 171.493 50.96C171.061 51.68 170.453 52.24 169.669 52.64C168.901 53.04 168.021 53.24 167.029 53.24H166.933C165.205 53.24 163.837 52.688 162.829 51.584C161.837 50.464 161.341 48.976 161.341 47.12V46.64C161.341 45.424 161.565 44.352 162.013 43.424C162.461 42.496 163.101 41.776 163.933 41.264C164.765 40.752 165.741 40.496 166.861 40.496H167.029ZM166.909 42.296C165.997 42.296 165.253 42.576 164.677 43.136C164.117 43.696 163.773 44.528 163.645 45.632H169.933V45.344C169.933 44.432 169.653 43.696 169.093 43.136C168.549 42.576 167.821 42.296 166.909 42.296ZM183.945 36.536C183.913 36.808 183.713 40.904 183.345 48.824H181.185V36.536H183.945ZM183.777 50.336V53H181.353V50.336H183.777Z" fill="white"/>
<circle cx="55" cy="45" r="30" fill="#0440A3"/>
<path d="M68.4025 30.4042C68.3592 30.2574 68.2514 30.1338 68.1051 30.0635C67.8164 29.9225 67.4585 30.0242 67.3057 30.2906C67.3053 30.2913 67.3049 30.292 67.3046 30.2926C67.3046 30.3077 64.3081 35.672 55.1097 36.6068C53.9098 36.7249 52.737 37.0138 51.6329 37.4632C49.6567 38.256 48.0246 39.6358 46.9961 41.3831C46.0359 43.0245 45.6382 44.8961 45.8557 46.7505C46.0159 48.1023 46.5051 49.4032 47.2869 50.5559C45.6531 51.6384 40.4706 55.3804 40.0033 59.3969C39.969 59.6966 40.2046 59.9653 40.5294 59.9969C40.8543 60.0286 41.1454 59.8112 41.1797 59.5115C41.6077 55.9262 46.47 52.4495 47.9862 51.4424C49.8063 53.5049 52.5315 54.6688 55.456 54.8588C57.4244 54.976 59.3951 54.6662 61.2104 53.9542C63.1809 53.1912 64.9213 51.9981 66.2818 50.4775C69.788 46.5575 71.4577 39.9689 68.4025 30.4042ZM48.326 50.0161C48.1006 49.6884 47.9018 49.3457 47.7313 48.9909C47.3725 48.2421 47.1411 47.4468 47.0451 46.6329C46.845 44.9997 47.1868 43.3488 48.0254 41.8988C48.9319 40.3614 50.3697 39.1481 52.11 38.4522C53.1049 38.0524 54.1608 37.7972 55.2404 37.6953C61.3117 37.0923 64.8832 34.5986 66.7262 32.7894C65.6434 36.079 63.7791 39.1045 61.2692 41.6455L60.9098 38.3045C60.8915 38.0035 60.6122 37.7732 60.2861 37.7901C59.96 37.807 59.7104 38.0647 59.7287 38.3656C59.7296 38.3804 59.7312 38.3953 59.7334 38.41L60.1941 42.7039C57.446 45.276 53.6262 47.8601 48.326 50.0161ZM65.3668 49.7779V49.7809C64.1307 51.1697 62.5473 52.2604 60.7529 52.9591C59.1028 53.6026 57.3119 53.8794 55.5247 53.7672C53.0366 53.6509 50.7018 52.623 49.0384 50.9117C50.9877 50.1157 52.8725 49.1916 54.6783 48.1466L59.8706 49.0512C60.1933 49.0978 60.4959 48.8942 60.5465 48.5965C60.5952 48.3093 60.3914 48.0371 60.083 47.9777L56.0932 47.2812C57.9355 46.1136 59.6503 44.7836 61.2137 43.3099C61.2423 43.2872 61.2685 43.2619 61.2921 43.2346C65.4159 39.2724 67.1706 35.3524 67.9025 32.9401C69.9219 40.8886 68.3763 46.4188 65.3668 49.7779Z" fill="white"/>
</svg>
