<svg width="224" height="100" viewBox="0 0 224 100" fill="none" xmlns="http://www.w3.org/2000/svg">
<rect width="224" height="100" rx="20" fill="#0440A3"/>
<rect width="224" height="86" rx="20" fill="#0158E6"/>
<path d="M112.576 34.536L112.264 36.672H104.56V41.688H111.28V43.824H104.56V51H102.208V34.536H112.576ZM119.779 38.496C120.787 38.496 121.675 38.712 122.443 39.144C123.227 39.56 123.835 40.16 124.267 40.944C124.699 41.728 124.915 42.64 124.915 43.68V45.384H116.347C116.379 46.68 116.683 47.68 117.259 48.384C117.835 49.088 118.691 49.44 119.827 49.44C120.835 49.44 121.579 49.144 122.059 48.552C122.539 47.96 122.779 47.256 122.779 46.44H124.915C124.915 47.4 124.691 48.24 124.243 48.96C123.811 49.68 123.203 50.24 122.419 50.64C121.651 51.04 120.771 51.24 119.779 51.24H119.683C117.955 51.24 116.587 50.688 115.579 49.584C114.587 48.464 114.091 46.976 114.091 45.12V44.64C114.091 43.424 114.315 42.352 114.763 41.424C115.211 40.496 115.851 39.776 116.683 39.264C117.515 38.752 118.491 38.496 119.611 38.496H119.779ZM119.659 40.296C118.747 40.296 118.003 40.576 117.427 41.136C116.867 41.696 116.523 42.528 116.395 43.632H122.683V43.344C122.683 42.432 122.403 41.696 121.843 41.136C121.299 40.576 120.571 40.296 119.659 40.296ZM138.443 48.6C138.443 48.888 138.507 49.104 138.635 49.248C138.763 49.376 138.923 49.44 139.115 49.44C139.467 49.44 139.827 49.328 140.195 49.104V50.76C139.699 51.08 139.195 51.24 138.683 51.24C137.819 51.24 137.211 51.064 136.859 50.712C136.523 50.36 136.339 49.864 136.307 49.224C135.875 49.864 135.315 50.36 134.627 50.712C133.955 51.064 133.179 51.24 132.299 51.24C131.067 51.24 130.051 50.88 129.251 50.16C128.467 49.424 128.075 48.368 128.075 46.992V38.736H130.331V46.584C130.331 48.488 131.195 49.44 132.923 49.44C133.483 49.44 134.011 49.288 134.507 48.984C135.019 48.68 135.427 48.272 135.731 47.76C136.035 47.232 136.187 46.656 136.187 46.032V38.736H138.443V48.6ZM145.335 33.72V35.808H142.983V33.72H145.335ZM145.287 38.736V51H143.031V38.736H145.287ZM151.617 33.72V51H149.361V33.72H151.617ZM158.039 33.72V51H155.783V33.72H158.039ZM167.029 38.496C168.037 38.496 168.925 38.712 169.693 39.144C170.477 39.56 171.085 40.16 171.517 40.944C171.949 41.728 172.165 42.64 172.165 43.68V45.384H163.597C163.629 46.68 163.933 47.68 164.509 48.384C165.085 49.088 165.941 49.44 167.077 49.44C168.085 49.44 168.829 49.144 169.309 48.552C169.789 47.96 170.029 47.256 170.029 46.44H172.165C172.165 47.4 171.941 48.24 171.493 48.96C171.061 49.68 170.453 50.24 169.669 50.64C168.901 51.04 168.021 51.24 167.029 51.24H166.933C165.205 51.24 163.837 50.688 162.829 49.584C161.837 48.464 161.341 46.976 161.341 45.12V44.64C161.341 43.424 161.565 42.352 162.013 41.424C162.461 40.496 163.101 39.776 163.933 39.264C164.765 38.752 165.741 38.496 166.861 38.496H167.029ZM166.909 40.296C165.997 40.296 165.253 40.576 164.677 41.136C164.117 41.696 163.773 42.528 163.645 43.632H169.933V43.344C169.933 42.432 169.653 41.696 169.093 41.136C168.549 40.576 167.821 40.296 166.909 40.296ZM183.945 34.536C183.913 34.808 183.713 38.904 183.345 46.824H181.185V34.536H183.945ZM183.777 48.336V51H181.353V48.336H183.777Z" fill="white"/>
<circle cx="55" cy="43" r="30" fill="#0440A3"/>
<path d="M68.4025 28.4042C68.3592 28.2574 68.2514 28.1338 68.1051 28.0635C67.8164 27.9225 67.4585 28.0242 67.3057 28.2906C67.3053 28.2913 67.3049 28.292 67.3046 28.2926C67.3046 28.3077 64.3081 33.672 55.1097 34.6068C53.9098 34.7249 52.737 35.0138 51.6329 35.4632C49.6567 36.256 48.0246 37.6358 46.9961 39.3831C46.0359 41.0245 45.6382 42.8961 45.8557 44.7505C46.0159 46.1023 46.5051 47.4032 47.2869 48.5559C45.6531 49.6384 40.4706 53.3804 40.0033 57.3969C39.969 57.6966 40.2046 57.9653 40.5294 57.9969C40.8543 58.0286 41.1454 57.8112 41.1797 57.5115C41.6077 53.9262 46.47 50.4495 47.9862 49.4424C49.8063 51.5049 52.5315 52.6688 55.456 52.8588C57.4244 52.976 59.3951 52.6662 61.2104 51.9542C63.1809 51.1912 64.9213 49.9981 66.2818 48.4775C69.788 44.5575 71.4577 37.9689 68.4025 28.4042ZM48.326 48.0161C48.1006 47.6884 47.9018 47.3457 47.7313 46.9909C47.3725 46.2421 47.1411 45.4468 47.0451 44.6329C46.845 42.9997 47.1868 41.3488 48.0254 39.8988C48.9319 38.3614 50.3697 37.1481 52.11 36.4522C53.1049 36.0524 54.1608 35.7972 55.2404 35.6953C61.3117 35.0923 64.8832 32.5986 66.7262 30.7894C65.6434 34.079 63.7791 37.1045 61.2692 39.6455L60.9098 36.3045C60.8915 36.0035 60.6122 35.7732 60.2861 35.7901C59.96 35.807 59.7104 36.0647 59.7287 36.3656C59.7296 36.3804 59.7312 36.3953 59.7334 36.41L60.1941 40.7039C57.446 43.276 53.6262 45.8601 48.326 48.0161ZM65.3668 47.7779V47.7809C64.1307 49.1697 62.5473 50.2604 60.7529 50.9591C59.1028 51.6026 57.3119 51.8794 55.5247 51.7672C53.0366 51.6509 50.7018 50.623 49.0384 48.9117C50.9877 48.1157 52.8725 47.1916 54.6783 46.1466L59.8706 47.0512C60.1933 47.0978 60.4959 46.8942 60.5465 46.5965C60.5952 46.3093 60.3914 46.0371 60.083 45.9777L56.0932 45.2812C57.9355 44.1136 59.6503 42.7836 61.2137 41.3099C61.2423 41.2872 61.2685 41.2619 61.2921 41.2346C65.4159 37.2724 67.1706 33.3524 67.9025 30.9401C69.9219 38.8886 68.3763 44.4188 65.3668 47.7779Z" fill="white"/>
</svg>
