<svg width="224" height="100" viewBox="0 0 224 100" fill="none" xmlns="http://www.w3.org/2000/svg">
<rect width="224" height="100" rx="20" fill="#0440A3"/>
<rect width="224" height="96" rx="20" fill="#0158E6"/>
<path d="M112.576 41.536L112.264 43.672H104.56V48.688H111.28V50.824H104.56V58H102.208V41.536H112.576ZM119.779 45.496C120.787 45.496 121.675 45.712 122.443 46.144C123.227 46.56 123.835 47.16 124.267 47.944C124.699 48.728 124.915 49.64 124.915 50.68V52.384H116.347C116.379 53.68 116.683 54.68 117.259 55.384C117.835 56.088 118.691 56.44 119.827 56.44C120.835 56.44 121.579 56.144 122.059 55.552C122.539 54.96 122.779 54.256 122.779 53.44H124.915C124.915 54.4 124.691 55.24 124.243 55.96C123.811 56.68 123.203 57.24 122.419 57.64C121.651 58.04 120.771 58.24 119.779 58.24H119.683C117.955 58.24 116.587 57.688 115.579 56.584C114.587 55.464 114.091 53.976 114.091 52.12V51.64C114.091 50.424 114.315 49.352 114.763 48.424C115.211 47.496 115.851 46.776 116.683 46.264C117.515 45.752 118.491 45.496 119.611 45.496H119.779ZM119.659 47.296C118.747 47.296 118.003 47.576 117.427 48.136C116.867 48.696 116.523 49.528 116.395 50.632H122.683V50.344C122.683 49.432 122.403 48.696 121.843 48.136C121.299 47.576 120.571 47.296 119.659 47.296ZM138.443 55.6C138.443 55.888 138.507 56.104 138.635 56.248C138.763 56.376 138.923 56.44 139.115 56.44C139.467 56.44 139.827 56.328 140.195 56.104V57.76C139.699 58.08 139.195 58.24 138.683 58.24C137.819 58.24 137.211 58.064 136.859 57.712C136.523 57.36 136.339 56.864 136.307 56.224C135.875 56.864 135.315 57.36 134.627 57.712C133.955 58.064 133.179 58.24 132.299 58.24C131.067 58.24 130.051 57.88 129.251 57.16C128.467 56.424 128.075 55.368 128.075 53.992V45.736H130.331V53.584C130.331 55.488 131.195 56.44 132.923 56.44C133.483 56.44 134.011 56.288 134.507 55.984C135.019 55.68 135.427 55.272 135.731 54.76C136.035 54.232 136.187 53.656 136.187 53.032V45.736H138.443V55.6ZM145.335 40.72V42.808H142.983V40.72H145.335ZM145.287 45.736V58H143.031V45.736H145.287ZM151.617 40.72V58H149.361V40.72H151.617ZM158.039 40.72V58H155.783V40.72H158.039ZM167.029 45.496C168.037 45.496 168.925 45.712 169.693 46.144C170.477 46.56 171.085 47.16 171.517 47.944C171.949 48.728 172.165 49.64 172.165 50.68V52.384H163.597C163.629 53.68 163.933 54.68 164.509 55.384C165.085 56.088 165.941 56.44 167.077 56.44C168.085 56.44 168.829 56.144 169.309 55.552C169.789 54.96 170.029 54.256 170.029 53.44H172.165C172.165 54.4 171.941 55.24 171.493 55.96C171.061 56.68 170.453 57.24 169.669 57.64C168.901 58.04 168.021 58.24 167.029 58.24H166.933C165.205 58.24 163.837 57.688 162.829 56.584C161.837 55.464 161.341 53.976 161.341 52.12V51.64C161.341 50.424 161.565 49.352 162.013 48.424C162.461 47.496 163.101 46.776 163.933 46.264C164.765 45.752 165.741 45.496 166.861 45.496H167.029ZM166.909 47.296C165.997 47.296 165.253 47.576 164.677 48.136C164.117 48.696 163.773 49.528 163.645 50.632H169.933V50.344C169.933 49.432 169.653 48.696 169.093 48.136C168.549 47.576 167.821 47.296 166.909 47.296ZM183.945 41.536C183.913 41.808 183.713 45.904 183.345 53.824H181.185V41.536H183.945ZM183.777 55.336V58H181.353V55.336H183.777Z" fill="white"/>
<circle cx="55" cy="50" r="30" fill="#0440A3"/>
<path d="M68.4025 35.4042C68.3592 35.2574 68.2514 35.1338 68.1051 35.0635C67.8164 34.9225 67.4585 35.0242 67.3057 35.2906C67.3053 35.2913 67.3049 35.292 67.3046 35.2926C67.3046 35.3077 64.3081 40.672 55.1097 41.6068C53.9098 41.7249 52.737 42.0138 51.6329 42.4632C49.6567 43.256 48.0246 44.6358 46.9961 46.3831C46.0359 48.0245 45.6382 49.8961 45.8557 51.7505C46.0159 53.1023 46.5051 54.4032 47.2869 55.5559C45.6531 56.6384 40.4706 60.3804 40.0033 64.3969C39.969 64.6966 40.2046 64.9653 40.5294 64.9969C40.8543 65.0286 41.1454 64.8112 41.1797 64.5115C41.6077 60.9262 46.47 57.4495 47.9862 56.4424C49.8063 58.5049 52.5315 59.6688 55.456 59.8588C57.4244 59.976 59.3951 59.6662 61.2104 58.9542C63.1809 58.1912 64.9213 56.9981 66.2818 55.4775C69.788 51.5575 71.4577 44.9689 68.4025 35.4042ZM48.326 55.0161C48.1006 54.6884 47.9018 54.3457 47.7313 53.9909C47.3725 53.2421 47.1411 52.4468 47.0451 51.6329C46.845 49.9997 47.1868 48.3488 48.0254 46.8988C48.9319 45.3614 50.3697 44.1481 52.11 43.4522C53.1049 43.0524 54.1608 42.7972 55.2404 42.6953C61.3117 42.0923 64.8832 39.5986 66.7262 37.7894C65.6434 41.079 63.7791 44.1045 61.2692 46.6455L60.9098 43.3045C60.8915 43.0035 60.6122 42.7732 60.2861 42.7901C59.96 42.807 59.7104 43.0647 59.7287 43.3656C59.7296 43.3804 59.7312 43.3953 59.7334 43.41L60.1941 47.7039C57.446 50.276 53.6262 52.8601 48.326 55.0161ZM65.3668 54.7779V54.7809C64.1307 56.1697 62.5473 57.2604 60.7529 57.9591C59.1028 58.6026 57.3119 58.8794 55.5247 58.7672C53.0366 58.6509 50.7018 57.623 49.0384 55.9117C50.9877 55.1157 52.8725 54.1916 54.6783 53.1466L59.8706 54.0512C60.1933 54.0978 60.4959 53.8942 60.5465 53.5965C60.5952 53.3093 60.3914 53.0371 60.083 52.9777L56.0932 52.2812C57.9355 51.1136 59.6503 49.7836 61.2137 48.3099C61.2423 48.2872 61.2685 48.2619 61.2921 48.2346C65.4159 44.2724 67.1706 40.3524 67.9025 37.9401C69.9219 45.8886 68.3763 51.4188 65.3668 54.7779Z" fill="white"/>
</svg>
