<svg width="74" height="74" viewBox="0 0 74 74" fill="none" xmlns="http://www.w3.org/2000/svg">
<g filter="url(#filter0_d_747_198)">
<circle cx="37" cy="32" r="31" fill="#0A0F26" stroke="#0440A3" stroke-width="2"/>
<path fill-rule="evenodd" clip-rule="evenodd" d="M17 54.4162C17.8073 44.1109 26.4256 36 36.9382 36C47.4508 36 56.0691 44.1109 56.8764 54.4162C51.5763 59.1338 44.592 62 36.9382 62C29.2844 62 22.3001 59.1338 17 54.4162ZM46.9382 24C46.9382 29.5228 42.4611 34 36.9382 34C31.4154 34 26.9382 29.5228 26.9382 24C26.9382 18.4772 31.4154 14 36.9382 14C42.4611 14 46.9382 18.4772 46.9382 24Z" fill="#0158E6"/>
<rect x="32" y="22" width="4" height="2" fill="#0A0F26"/>
<rect x="38" y="22" width="4" height="2" fill="#0A0F26"/>
<rect x="35" y="28" width="4" height="2" fill="#0A0F26"/>
</g>
<defs>
<filter id="filter0_d_747_198" x="0" y="0" width="74" height="74" filterUnits="userSpaceOnUse" color-interpolation-filters="sRGB">
<feFlood flood-opacity="0" result="BackgroundImageFix"/>
<feColorMatrix in="SourceAlpha" type="matrix" values="0 0 0 0 0 0 0 0 0 0 0 0 0 0 0 0 0 0 127 0" result="hardAlpha"/>
<feOffset dy="5"/>
<feGaussianBlur stdDeviation="2.5"/>
<feColorMatrix type="matrix" values="0 0 0 0 0 0 0 0 0 0 0 0 0 0 0 0 0 0 0.3 0"/>
<feBlend mode="normal" in2="BackgroundImageFix" result="effect1_dropShadow_747_198"/>
<feBlend mode="normal" in="SourceGraphic" in2="effect1_dropShadow_747_198" result="shape"/>
</filter>
</defs>
</svg>
