<svg width="297" height="100" viewBox="0 0 297 100" fill="none" xmlns="http://www.w3.org/2000/svg">
<rect width="297" height="100" rx="20" fill="#0440A3"/>
<rect width="297" height="90" rx="20" fill="#0158E6"/>
<path d="M38.256 41.296C39.536 41.296 40.656 41.56 41.616 42.088C42.576 42.616 43.312 43.376 43.824 44.368C44.352 45.344 44.616 46.504 44.616 47.848H42.264C42.264 46.456 41.92 45.376 41.232 44.608C40.544 43.824 39.552 43.432 38.256 43.432C36.816 43.432 35.72 43.88 34.968 44.776C34.216 45.656 33.84 46.96 33.84 48.688V50.848C33.84 52.56 34.208 53.864 34.944 54.76C35.68 55.656 36.768 56.104 38.208 56.104C39.552 56.104 40.576 55.72 41.28 54.952C42 54.184 42.36 53.112 42.36 51.736H44.616C44.616 53.064 44.352 54.216 43.824 55.192C43.312 56.168 42.576 56.92 41.616 57.448C40.656 57.976 39.536 58.24 38.256 58.24C36.128 58.24 34.464 57.592 33.264 56.296C32.08 54.984 31.488 53.168 31.488 50.848V48.688C31.488 46.384 32.08 44.576 33.264 43.264C34.464 41.952 36.128 41.296 38.256 41.296ZM52.8021 45.496C54.5141 45.496 55.8821 46.024 56.9061 47.08C57.9301 48.136 58.4421 49.584 58.4421 51.424V52.312C58.4421 54.152 57.9381 55.6 56.9301 56.656C55.9221 57.712 54.5461 58.24 52.8021 58.24C51.0581 58.24 49.6821 57.712 48.6741 56.656C47.6661 55.6 47.1621 54.152 47.1621 52.312V51.424C47.1621 49.584 47.6741 48.136 48.6981 47.08C49.7221 46.024 51.0901 45.496 52.8021 45.496ZM52.8021 47.296C51.7301 47.296 50.8981 47.664 50.3061 48.4C49.7141 49.136 49.4181 50.216 49.4181 51.64V52.096C49.4181 53.488 49.7061 54.56 50.2821 55.312C50.8741 56.064 51.7141 56.44 52.8021 56.44C53.8581 56.44 54.6821 56.072 55.2741 55.336C55.8821 54.584 56.1861 53.504 56.1861 52.096V51.64C56.1861 50.248 55.8901 49.176 55.2981 48.424C54.7221 47.672 53.8901 47.296 52.8021 47.296ZM74.6233 45.496C75.8873 45.496 76.8713 45.864 77.5753 46.6C78.2793 47.336 78.6313 48.384 78.6313 49.744V58H76.3753V50.152C76.3753 48.248 75.6393 47.296 74.1673 47.296C73.6553 47.296 73.1753 47.448 72.7273 47.752C72.2953 48.056 71.9433 48.472 71.6713 49C71.4153 49.512 71.2873 50.08 71.2873 50.704V58H69.0313V50.152C69.0313 48.248 68.2953 47.296 66.8233 47.296C66.3113 47.296 65.8313 47.448 65.3833 47.752C64.9513 48.056 64.5993 48.472 64.3273 49C64.0713 49.512 63.9433 50.08 63.9433 50.704V58H61.6873V45.736H63.3193L63.6313 47.536C64.5593 46.176 65.8473 45.496 67.4953 45.496C69.1113 45.496 70.2313 46.176 70.8553 47.536C71.3993 46.768 71.9833 46.24 72.6073 45.952C73.2313 45.648 73.9033 45.496 74.6233 45.496ZM95.4358 45.496C96.6998 45.496 97.6838 45.864 98.3878 46.6C99.0918 47.336 99.4438 48.384 99.4438 49.744V58H97.1878V50.152C97.1878 48.248 96.4518 47.296 94.9798 47.296C94.4678 47.296 93.9878 47.448 93.5398 47.752C93.1078 48.056 92.7558 48.472 92.4838 49C92.2278 49.512 92.0998 50.08 92.0998 50.704V58H89.8438V50.152C89.8438 48.248 89.1078 47.296 87.6358 47.296C87.1238 47.296 86.6438 47.448 86.1958 47.752C85.7638 48.056 85.4118 48.472 85.1398 49C84.8838 49.512 84.7558 50.08 84.7558 50.704V58H82.4998V45.736H84.1318L84.4438 47.536C85.3718 46.176 86.6598 45.496 88.3078 45.496C89.9238 45.496 91.0438 46.176 91.6678 47.536C92.2118 46.768 92.7958 46.24 93.4198 45.952C94.0438 45.648 94.7158 45.496 95.4358 45.496ZM108.232 45.496C109.24 45.496 110.128 45.712 110.896 46.144C111.68 46.56 112.288 47.16 112.72 47.944C113.152 48.728 113.368 49.64 113.368 50.68V52.384H104.8C104.832 53.68 105.136 54.68 105.712 55.384C106.288 56.088 107.144 56.44 108.28 56.44C109.288 56.44 110.032 56.144 110.512 55.552C110.992 54.96 111.232 54.256 111.232 53.44H113.368C113.368 54.4 113.144 55.24 112.696 55.96C112.264 56.68 111.656 57.24 110.872 57.64C110.104 58.04 109.224 58.24 108.232 58.24H108.136C106.408 58.24 105.04 57.688 104.032 56.584C103.04 55.464 102.544 53.976 102.544 52.12V51.64C102.544 50.424 102.768 49.352 103.216 48.424C103.664 47.496 104.304 46.776 105.136 46.264C105.968 45.752 106.944 45.496 108.064 45.496H108.232ZM108.112 47.296C107.2 47.296 106.456 47.576 105.88 48.136C105.32 48.696 104.976 49.528 104.848 50.632H111.136V50.344C111.136 49.432 110.856 48.696 110.296 48.136C109.752 47.576 109.024 47.296 108.112 47.296ZM122.696 45.496C124.04 45.496 125.096 45.856 125.864 46.576C126.632 47.296 127.016 48.352 127.016 49.744V58H124.76V50.152C124.76 48.248 123.896 47.296 122.168 47.296C121.592 47.296 121.056 47.448 120.56 47.752C120.064 48.056 119.664 48.472 119.36 49C119.056 49.512 118.904 50.08 118.904 50.704V58H116.648V45.736H118.28L118.592 47.536C119.616 46.176 120.984 45.496 122.696 45.496ZM135.675 45.496C136.651 45.496 137.523 45.712 138.291 46.144C139.075 46.56 139.683 47.152 140.115 47.92C140.547 48.688 140.763 49.568 140.763 50.56H138.531C138.531 49.568 138.275 48.776 137.763 48.184C137.267 47.592 136.547 47.296 135.603 47.296C134.611 47.296 133.819 47.632 133.227 48.304C132.651 48.96 132.363 49.864 132.363 51.016V52.312C132.363 53.704 132.651 54.744 133.227 55.432C133.803 56.104 134.619 56.44 135.675 56.44C136.651 56.44 137.379 56.152 137.859 55.576C138.355 54.984 138.603 54.192 138.603 53.2H140.763C140.763 54.736 140.299 55.96 139.371 56.872C138.459 57.784 137.235 58.24 135.699 58.24H135.507C134.419 58.24 133.467 57.992 132.651 57.496C131.835 56.984 131.203 56.272 130.755 55.36C130.323 54.448 130.107 53.384 130.107 52.168V51.592C130.107 50.376 130.331 49.312 130.779 48.4C131.227 47.472 131.859 46.76 132.675 46.264C133.491 45.752 134.427 45.496 135.483 45.496H135.675ZM148.85 45.496C149.858 45.496 150.746 45.712 151.514 46.144C152.298 46.56 152.906 47.16 153.338 47.944C153.77 48.728 153.986 49.64 153.986 50.68V52.384H145.418C145.45 53.68 145.754 54.68 146.33 55.384C146.906 56.088 147.762 56.44 148.898 56.44C149.906 56.44 150.65 56.144 151.13 55.552C151.61 54.96 151.85 54.256 151.85 53.44H153.986C153.986 54.4 153.762 55.24 153.314 55.96C152.882 56.68 152.274 57.24 151.49 57.64C150.722 58.04 149.842 58.24 148.85 58.24H148.754C147.026 58.24 145.658 57.688 144.65 56.584C143.658 55.464 143.162 53.976 143.162 52.12V51.64C143.162 50.424 143.386 49.352 143.834 48.424C144.282 47.496 144.922 46.776 145.754 46.264C146.586 45.752 147.562 45.496 148.682 45.496H148.85ZM148.73 47.296C147.818 47.296 147.074 47.576 146.498 48.136C145.938 48.696 145.594 49.528 145.465 50.632H151.754V50.344C151.754 49.432 151.474 48.696 150.914 48.136C150.37 47.576 149.642 47.296 148.73 47.296ZM162.785 45.496C163.921 45.496 164.809 45.864 165.449 46.6C166.089 47.32 166.409 48.232 166.409 49.336L166.337 50.248H164.345V49.72C164.345 49.24 164.225 48.816 163.985 48.448C163.745 48.08 163.441 47.8 163.073 47.608C162.705 47.4 162.337 47.296 161.969 47.296C161.201 47.296 160.601 47.6 160.169 48.208C159.737 48.816 159.521 49.64 159.521 50.68V58H157.265V45.736H158.873L159.209 47.56C159.305 47.24 159.521 46.92 159.857 46.6C160.193 46.28 160.609 46.016 161.105 45.808C161.617 45.6 162.177 45.496 162.785 45.496ZM177.242 40.72V58H174.986V40.72H177.242ZM186.136 45.496C187.752 45.496 188.952 45.816 189.736 46.456C190.536 47.096 190.936 48.024 190.936 49.24V55.6C190.936 55.888 191 56.104 191.128 56.248C191.256 56.376 191.416 56.44 191.608 56.44C191.976 56.44 192.344 56.328 192.712 56.104V57.76C192.168 58.08 191.552 58.24 190.864 58.24C190.176 58.24 189.664 58.048 189.328 57.664C188.992 57.264 188.808 56.72 188.776 56.032C187.784 57.504 186.352 58.24 184.48 58.24C183.136 58.24 182.128 57.952 181.456 57.376C180.8 56.784 180.472 55.856 180.472 54.592C180.472 53.6 180.728 52.824 181.24 52.264C181.752 51.688 182.6 51.272 183.784 51.016C184.968 50.76 186.6 50.632 188.68 50.632V49.504C188.68 48.688 188.44 48.12 187.96 47.8C187.48 47.464 186.784 47.296 185.872 47.296C185.008 47.296 184.336 47.464 183.856 47.8C183.376 48.136 183.136 48.608 183.136 49.216V49.504H180.928C180.896 49.28 180.88 49.016 180.88 48.712C180.88 48.152 181.104 47.624 181.552 47.128C182 46.632 182.608 46.24 183.376 45.952C184.144 45.648 184.992 45.496 185.92 45.496H186.136ZM188.68 52.384C187 52.384 185.728 52.472 184.864 52.648C184.016 52.808 183.448 53.056 183.16 53.392C182.872 53.728 182.728 54.192 182.728 54.784C182.728 55.888 183.568 56.44 185.248 56.44C185.84 56.44 186.4 56.296 186.928 56.008C187.456 55.704 187.88 55.28 188.2 54.736C188.52 54.192 188.68 53.568 188.68 52.864V52.384ZM206.995 45.496C208.547 45.496 209.763 46.064 210.643 47.2C211.523 48.336 211.963 49.896 211.963 51.88V52.144C211.963 54.032 211.523 55.52 210.643 56.608C209.779 57.696 208.563 58.24 206.995 58.24C205.491 58.24 204.315 57.64 203.467 56.44V62.344H201.211V45.736H202.891C203.003 46.248 203.107 46.808 203.203 47.416C204.115 46.136 205.379 45.496 206.995 45.496ZM206.587 47.296C205.499 47.296 204.699 47.672 204.187 48.424C203.691 49.176 203.443 50.32 203.443 51.856C203.443 53.424 203.699 54.584 204.211 55.336C204.739 56.072 205.531 56.44 206.587 56.44C207.643 56.44 208.427 56.064 208.939 55.312C209.451 54.56 209.707 53.408 209.707 51.856C209.707 50.288 209.443 49.136 208.915 48.4C208.403 47.664 207.627 47.296 206.587 47.296ZM220.027 45.496C221.643 45.496 222.843 45.816 223.627 46.456C224.427 47.096 224.827 48.024 224.827 49.24V55.6C224.827 55.888 224.891 56.104 225.019 56.248C225.147 56.376 225.307 56.44 225.499 56.44C225.867 56.44 226.235 56.328 226.603 56.104V57.76C226.059 58.08 225.443 58.24 224.755 58.24C224.067 58.24 223.555 58.048 223.219 57.664C222.883 57.264 222.699 56.72 222.667 56.032C221.675 57.504 220.243 58.24 218.371 58.24C217.027 58.24 216.019 57.952 215.347 57.376C214.691 56.784 214.363 55.856 214.363 54.592C214.363 53.6 214.619 52.824 215.131 52.264C215.643 51.688 216.491 51.272 217.675 51.016C218.859 50.76 220.491 50.632 222.571 50.632V49.504C222.571 48.688 222.331 48.12 221.851 47.8C221.371 47.464 220.675 47.296 219.763 47.296C218.899 47.296 218.227 47.464 217.747 47.8C217.267 48.136 217.027 48.608 217.027 49.216V49.504H214.819C214.787 49.28 214.771 49.016 214.771 48.712C214.771 48.152 214.995 47.624 215.443 47.128C215.891 46.632 216.499 46.24 217.267 45.952C218.035 45.648 218.883 45.496 219.811 45.496H220.027ZM222.571 52.384C220.891 52.384 219.619 52.472 218.755 52.648C217.907 52.808 217.339 53.056 217.051 53.392C216.763 53.728 216.619 54.192 216.619 54.784C216.619 55.888 217.459 56.44 219.139 56.44C219.731 56.44 220.291 56.296 220.819 56.008C221.347 55.704 221.771 55.28 222.091 54.736C222.411 54.192 222.571 53.568 222.571 52.864V52.384ZM234.762 45.496C235.898 45.496 236.786 45.864 237.426 46.6C238.066 47.32 238.386 48.232 238.386 49.336L238.314 50.248H236.322V49.72C236.322 49.24 236.202 48.816 235.962 48.448C235.722 48.08 235.418 47.8 235.05 47.608C234.682 47.4 234.314 47.296 233.946 47.296C233.178 47.296 232.578 47.6 232.146 48.208C231.714 48.816 231.498 49.64 231.498 50.68V58H229.242V45.736H230.85L231.186 47.56C231.282 47.24 231.498 46.92 231.834 46.6C232.17 46.28 232.586 46.016 233.082 45.808C233.594 45.6 234.154 45.496 234.762 45.496ZM243.648 45.736H246.504V47.536H243.648V54.856C243.648 55.432 243.76 55.848 243.984 56.104C244.208 56.36 244.552 56.488 245.016 56.488C245.432 56.488 245.928 56.368 246.504 56.128V57.808C245.928 58.096 245.184 58.24 244.272 58.24C243.328 58.24 242.608 57.96 242.112 57.4C241.632 56.84 241.392 55.952 241.392 54.736V47.536H240.048V45.736H241.464L242.232 41.824H243.648V45.736ZM251.609 40.72V42.808H249.257V40.72H251.609ZM251.561 45.736V58H249.305V45.736H251.561ZM260.459 45.496C261.467 45.496 262.355 45.712 263.123 46.144C263.907 46.56 264.515 47.16 264.947 47.944C265.379 48.728 265.595 49.64 265.595 50.68V52.384H257.027C257.059 53.68 257.363 54.68 257.939 55.384C258.515 56.088 259.371 56.44 260.507 56.44C261.515 56.44 262.259 56.144 262.739 55.552C263.219 54.96 263.459 54.256 263.459 53.44H265.595C265.595 54.4 265.371 55.24 264.923 55.96C264.491 56.68 263.883 57.24 263.099 57.64C262.331 58.04 261.451 58.24 260.459 58.24H260.363C258.635 58.24 257.267 57.688 256.259 56.584C255.267 55.464 254.771 53.976 254.771 52.12V51.64C254.771 50.424 254.995 49.352 255.443 48.424C255.891 47.496 256.531 46.776 257.363 46.264C258.195 45.752 259.171 45.496 260.291 45.496H260.459ZM260.339 47.296C259.427 47.296 258.683 47.576 258.107 48.136C257.547 48.696 257.203 49.528 257.075 50.632H263.363V50.344C263.363 49.432 263.083 48.696 262.523 48.136C261.979 47.576 261.251 47.296 260.339 47.296Z" fill="white"/>
</svg>
