<svg width="297" height="100" viewBox="0 0 297 100" fill="none" xmlns="http://www.w3.org/2000/svg">
<rect width="297" height="100" rx="20" fill="#0440A3"/>
<rect width="297" height="86" rx="20" fill="#0158E6"/>
<path d="M38.256 36.296C39.536 36.296 40.656 36.56 41.616 37.088C42.576 37.616 43.312 38.376 43.824 39.368C44.352 40.344 44.616 41.504 44.616 42.848H42.264C42.264 41.456 41.92 40.376 41.232 39.608C40.544 38.824 39.552 38.432 38.256 38.432C36.816 38.432 35.72 38.88 34.968 39.776C34.216 40.656 33.84 41.96 33.84 43.688V45.848C33.84 47.56 34.208 48.864 34.944 49.76C35.68 50.656 36.768 51.104 38.208 51.104C39.552 51.104 40.576 50.72 41.28 49.952C42 49.184 42.36 48.112 42.36 46.736H44.616C44.616 48.064 44.352 49.216 43.824 50.192C43.312 51.168 42.576 51.92 41.616 52.448C40.656 52.976 39.536 53.24 38.256 53.24C36.128 53.24 34.464 52.592 33.264 51.296C32.08 49.984 31.488 48.168 31.488 45.848V43.688C31.488 41.384 32.08 39.576 33.264 38.264C34.464 36.952 36.128 36.296 38.256 36.296ZM52.8021 40.496C54.5141 40.496 55.8821 41.024 56.9061 42.08C57.9301 43.136 58.4421 44.584 58.4421 46.424V47.312C58.4421 49.152 57.9381 50.6 56.9301 51.656C55.9221 52.712 54.5461 53.24 52.8021 53.24C51.0581 53.24 49.6821 52.712 48.6741 51.656C47.6661 50.6 47.1621 49.152 47.1621 47.312V46.424C47.1621 44.584 47.6741 43.136 48.6981 42.08C49.7221 41.024 51.0901 40.496 52.8021 40.496ZM52.8021 42.296C51.7301 42.296 50.8981 42.664 50.3061 43.4C49.7141 44.136 49.4181 45.216 49.4181 46.64V47.096C49.4181 48.488 49.7061 49.56 50.2821 50.312C50.8741 51.064 51.7141 51.44 52.8021 51.44C53.8581 51.44 54.6821 51.072 55.2741 50.336C55.8821 49.584 56.1861 48.504 56.1861 47.096V46.64C56.1861 45.248 55.8901 44.176 55.2981 43.424C54.7221 42.672 53.8901 42.296 52.8021 42.296ZM74.6233 40.496C75.8873 40.496 76.8713 40.864 77.5753 41.6C78.2793 42.336 78.6313 43.384 78.6313 44.744V53H76.3753V45.152C76.3753 43.248 75.6393 42.296 74.1673 42.296C73.6553 42.296 73.1753 42.448 72.7273 42.752C72.2953 43.056 71.9433 43.472 71.6713 44C71.4153 44.512 71.2873 45.08 71.2873 45.704V53H69.0313V45.152C69.0313 43.248 68.2953 42.296 66.8233 42.296C66.3113 42.296 65.8313 42.448 65.3833 42.752C64.9513 43.056 64.5993 43.472 64.3273 44C64.0713 44.512 63.9433 45.08 63.9433 45.704V53H61.6873V40.736H63.3193L63.6313 42.536C64.5593 41.176 65.8473 40.496 67.4953 40.496C69.1113 40.496 70.2313 41.176 70.8553 42.536C71.3993 41.768 71.9833 41.24 72.6073 40.952C73.2313 40.648 73.9033 40.496 74.6233 40.496ZM95.4358 40.496C96.6998 40.496 97.6838 40.864 98.3878 41.6C99.0918 42.336 99.4438 43.384 99.4438 44.744V53H97.1878V45.152C97.1878 43.248 96.4518 42.296 94.9798 42.296C94.4678 42.296 93.9878 42.448 93.5398 42.752C93.1078 43.056 92.7558 43.472 92.4838 44C92.2278 44.512 92.0998 45.08 92.0998 45.704V53H89.8438V45.152C89.8438 43.248 89.1078 42.296 87.6358 42.296C87.1238 42.296 86.6438 42.448 86.1958 42.752C85.7638 43.056 85.4118 43.472 85.1398 44C84.8838 44.512 84.7558 45.08 84.7558 45.704V53H82.4998V40.736H84.1318L84.4438 42.536C85.3718 41.176 86.6598 40.496 88.3078 40.496C89.9238 40.496 91.0438 41.176 91.6678 42.536C92.2118 41.768 92.7958 41.24 93.4198 40.952C94.0438 40.648 94.7158 40.496 95.4358 40.496ZM108.232 40.496C109.24 40.496 110.128 40.712 110.896 41.144C111.68 41.56 112.288 42.16 112.72 42.944C113.152 43.728 113.368 44.64 113.368 45.68V47.384H104.8C104.832 48.68 105.136 49.68 105.712 50.384C106.288 51.088 107.144 51.44 108.28 51.44C109.288 51.44 110.032 51.144 110.512 50.552C110.992 49.96 111.232 49.256 111.232 48.44H113.368C113.368 49.4 113.144 50.24 112.696 50.96C112.264 51.68 111.656 52.24 110.872 52.64C110.104 53.04 109.224 53.24 108.232 53.24H108.136C106.408 53.24 105.04 52.688 104.032 51.584C103.04 50.464 102.544 48.976 102.544 47.12V46.64C102.544 45.424 102.768 44.352 103.216 43.424C103.664 42.496 104.304 41.776 105.136 41.264C105.968 40.752 106.944 40.496 108.064 40.496H108.232ZM108.112 42.296C107.2 42.296 106.456 42.576 105.88 43.136C105.32 43.696 104.976 44.528 104.848 45.632H111.136V45.344C111.136 44.432 110.856 43.696 110.296 43.136C109.752 42.576 109.024 42.296 108.112 42.296ZM122.696 40.496C124.04 40.496 125.096 40.856 125.864 41.576C126.632 42.296 127.016 43.352 127.016 44.744V53H124.76V45.152C124.76 43.248 123.896 42.296 122.168 42.296C121.592 42.296 121.056 42.448 120.56 42.752C120.064 43.056 119.664 43.472 119.36 44C119.056 44.512 118.904 45.08 118.904 45.704V53H116.648V40.736H118.28L118.592 42.536C119.616 41.176 120.984 40.496 122.696 40.496ZM135.675 40.496C136.651 40.496 137.523 40.712 138.291 41.144C139.075 41.56 139.683 42.152 140.115 42.92C140.547 43.688 140.763 44.568 140.763 45.56H138.531C138.531 44.568 138.275 43.776 137.763 43.184C137.267 42.592 136.547 42.296 135.603 42.296C134.611 42.296 133.819 42.632 133.227 43.304C132.651 43.96 132.363 44.864 132.363 46.016V47.312C132.363 48.704 132.651 49.744 133.227 50.432C133.803 51.104 134.619 51.44 135.675 51.44C136.651 51.44 137.379 51.152 137.859 50.576C138.355 49.984 138.603 49.192 138.603 48.2H140.763C140.763 49.736 140.299 50.96 139.371 51.872C138.459 52.784 137.235 53.24 135.699 53.24H135.507C134.419 53.24 133.467 52.992 132.651 52.496C131.835 51.984 131.203 51.272 130.755 50.36C130.323 49.448 130.107 48.384 130.107 47.168V46.592C130.107 45.376 130.331 44.312 130.779 43.4C131.227 42.472 131.859 41.76 132.675 41.264C133.491 40.752 134.427 40.496 135.483 40.496H135.675ZM148.85 40.496C149.858 40.496 150.746 40.712 151.514 41.144C152.298 41.56 152.906 42.16 153.338 42.944C153.77 43.728 153.986 44.64 153.986 45.68V47.384H145.418C145.45 48.68 145.754 49.68 146.33 50.384C146.906 51.088 147.762 51.44 148.898 51.44C149.906 51.44 150.65 51.144 151.13 50.552C151.61 49.96 151.85 49.256 151.85 48.44H153.986C153.986 49.4 153.762 50.24 153.314 50.96C152.882 51.68 152.274 52.24 151.49 52.64C150.722 53.04 149.842 53.24 148.85 53.24H148.754C147.026 53.24 145.658 52.688 144.65 51.584C143.658 50.464 143.162 48.976 143.162 47.12V46.64C143.162 45.424 143.386 44.352 143.834 43.424C144.282 42.496 144.922 41.776 145.754 41.264C146.586 40.752 147.562 40.496 148.682 40.496H148.85ZM148.73 42.296C147.818 42.296 147.074 42.576 146.498 43.136C145.938 43.696 145.594 44.528 145.465 45.632H151.754V45.344C151.754 44.432 151.474 43.696 150.914 43.136C150.37 42.576 149.642 42.296 148.73 42.296ZM162.785 40.496C163.921 40.496 164.809 40.864 165.449 41.6C166.089 42.32 166.409 43.232 166.409 44.336L166.337 45.248H164.345V44.72C164.345 44.24 164.225 43.816 163.985 43.448C163.745 43.08 163.441 42.8 163.073 42.608C162.705 42.4 162.337 42.296 161.969 42.296C161.201 42.296 160.601 42.6 160.169 43.208C159.737 43.816 159.521 44.64 159.521 45.68V53H157.265V40.736H158.873L159.209 42.56C159.305 42.24 159.521 41.92 159.857 41.6C160.193 41.28 160.609 41.016 161.105 40.808C161.617 40.6 162.177 40.496 162.785 40.496ZM177.242 35.72V53H174.986V35.72H177.242ZM186.136 40.496C187.752 40.496 188.952 40.816 189.736 41.456C190.536 42.096 190.936 43.024 190.936 44.24V50.6C190.936 50.888 191 51.104 191.128 51.248C191.256 51.376 191.416 51.44 191.608 51.44C191.976 51.44 192.344 51.328 192.712 51.104V52.76C192.168 53.08 191.552 53.24 190.864 53.24C190.176 53.24 189.664 53.048 189.328 52.664C188.992 52.264 188.808 51.72 188.776 51.032C187.784 52.504 186.352 53.24 184.48 53.24C183.136 53.24 182.128 52.952 181.456 52.376C180.8 51.784 180.472 50.856 180.472 49.592C180.472 48.6 180.728 47.824 181.24 47.264C181.752 46.688 182.6 46.272 183.784 46.016C184.968 45.76 186.6 45.632 188.68 45.632V44.504C188.68 43.688 188.44 43.12 187.96 42.8C187.48 42.464 186.784 42.296 185.872 42.296C185.008 42.296 184.336 42.464 183.856 42.8C183.376 43.136 183.136 43.608 183.136 44.216V44.504H180.928C180.896 44.28 180.88 44.016 180.88 43.712C180.88 43.152 181.104 42.624 181.552 42.128C182 41.632 182.608 41.24 183.376 40.952C184.144 40.648 184.992 40.496 185.92 40.496H186.136ZM188.68 47.384C187 47.384 185.728 47.472 184.864 47.648C184.016 47.808 183.448 48.056 183.16 48.392C182.872 48.728 182.728 49.192 182.728 49.784C182.728 50.888 183.568 51.44 185.248 51.44C185.84 51.44 186.4 51.296 186.928 51.008C187.456 50.704 187.88 50.28 188.2 49.736C188.52 49.192 188.68 48.568 188.68 47.864V47.384ZM206.995 40.496C208.547 40.496 209.763 41.064 210.643 42.2C211.523 43.336 211.963 44.896 211.963 46.88V47.144C211.963 49.032 211.523 50.52 210.643 51.608C209.779 52.696 208.563 53.24 206.995 53.24C205.491 53.24 204.315 52.64 203.467 51.44V57.344H201.211V40.736H202.891C203.003 41.248 203.107 41.808 203.203 42.416C204.115 41.136 205.379 40.496 206.995 40.496ZM206.587 42.296C205.499 42.296 204.699 42.672 204.187 43.424C203.691 44.176 203.443 45.32 203.443 46.856C203.443 48.424 203.699 49.584 204.211 50.336C204.739 51.072 205.531 51.44 206.587 51.44C207.643 51.44 208.427 51.064 208.939 50.312C209.451 49.56 209.707 48.408 209.707 46.856C209.707 45.288 209.443 44.136 208.915 43.4C208.403 42.664 207.627 42.296 206.587 42.296ZM220.027 40.496C221.643 40.496 222.843 40.816 223.627 41.456C224.427 42.096 224.827 43.024 224.827 44.24V50.6C224.827 50.888 224.891 51.104 225.019 51.248C225.147 51.376 225.307 51.44 225.499 51.44C225.867 51.44 226.235 51.328 226.603 51.104V52.76C226.059 53.08 225.443 53.24 224.755 53.24C224.067 53.24 223.555 53.048 223.219 52.664C222.883 52.264 222.699 51.72 222.667 51.032C221.675 52.504 220.243 53.24 218.371 53.24C217.027 53.24 216.019 52.952 215.347 52.376C214.691 51.784 214.363 50.856 214.363 49.592C214.363 48.6 214.619 47.824 215.131 47.264C215.643 46.688 216.491 46.272 217.675 46.016C218.859 45.76 220.491 45.632 222.571 45.632V44.504C222.571 43.688 222.331 43.12 221.851 42.8C221.371 42.464 220.675 42.296 219.763 42.296C218.899 42.296 218.227 42.464 217.747 42.8C217.267 43.136 217.027 43.608 217.027 44.216V44.504H214.819C214.787 44.28 214.771 44.016 214.771 43.712C214.771 43.152 214.995 42.624 215.443 42.128C215.891 41.632 216.499 41.24 217.267 40.952C218.035 40.648 218.883 40.496 219.811 40.496H220.027ZM222.571 47.384C220.891 47.384 219.619 47.472 218.755 47.648C217.907 47.808 217.339 48.056 217.051 48.392C216.763 48.728 216.619 49.192 216.619 49.784C216.619 50.888 217.459 51.44 219.139 51.44C219.731 51.44 220.291 51.296 220.819 51.008C221.347 50.704 221.771 50.28 222.091 49.736C222.411 49.192 222.571 48.568 222.571 47.864V47.384ZM234.762 40.496C235.898 40.496 236.786 40.864 237.426 41.6C238.066 42.32 238.386 43.232 238.386 44.336L238.314 45.248H236.322V44.72C236.322 44.24 236.202 43.816 235.962 43.448C235.722 43.08 235.418 42.8 235.05 42.608C234.682 42.4 234.314 42.296 233.946 42.296C233.178 42.296 232.578 42.6 232.146 43.208C231.714 43.816 231.498 44.64 231.498 45.68V53H229.242V40.736H230.85L231.186 42.56C231.282 42.24 231.498 41.92 231.834 41.6C232.17 41.28 232.586 41.016 233.082 40.808C233.594 40.6 234.154 40.496 234.762 40.496ZM243.648 40.736H246.504V42.536H243.648V49.856C243.648 50.432 243.76 50.848 243.984 51.104C244.208 51.36 244.552 51.488 245.016 51.488C245.432 51.488 245.928 51.368 246.504 51.128V52.808C245.928 53.096 245.184 53.24 244.272 53.24C243.328 53.24 242.608 52.96 242.112 52.4C241.632 51.84 241.392 50.952 241.392 49.736V42.536H240.048V40.736H241.464L242.232 36.824H243.648V40.736ZM251.609 35.72V37.808H249.257V35.72H251.609ZM251.561 40.736V53H249.305V40.736H251.561ZM260.459 40.496C261.467 40.496 262.355 40.712 263.123 41.144C263.907 41.56 264.515 42.16 264.947 42.944C265.379 43.728 265.595 44.64 265.595 45.68V47.384H257.027C257.059 48.68 257.363 49.68 257.939 50.384C258.515 51.088 259.371 51.44 260.507 51.44C261.515 51.44 262.259 51.144 262.739 50.552C263.219 49.96 263.459 49.256 263.459 48.44H265.595C265.595 49.4 265.371 50.24 264.923 50.96C264.491 51.68 263.883 52.24 263.099 52.64C262.331 53.04 261.451 53.24 260.459 53.24H260.363C258.635 53.24 257.267 52.688 256.259 51.584C255.267 50.464 254.771 48.976 254.771 47.12V46.64C254.771 45.424 254.995 44.352 255.443 43.424C255.891 42.496 256.531 41.776 257.363 41.264C258.195 40.752 259.171 40.496 260.291 40.496H260.459ZM260.339 42.296C259.427 42.296 258.683 42.576 258.107 43.136C257.547 43.696 257.203 44.528 257.075 45.632H263.363V45.344C263.363 44.432 263.083 43.696 262.523 43.136C261.979 42.576 261.251 42.296 260.339 42.296Z" fill="white"/>
</svg>
